M48
; DRILL file {KiCad 5.1.10-1.fc34} date Tue Jul 27 15:58:44 2021
; FORMAT={-:-/ absolute / inch / decimal}
; #@! TF.CreationDate,2021-07-27T15:58:44+02:00
; #@! TF.GenerationSoftware,Kicad,Pcbnew,5.1.10-1.fc34
; #@! TF.FileFunction,Plated,1,2,PTH
FMAT,2
INCH
T1C0.0157
T2C0.0394
T3C0.0437
T4C0.1260
%
G90
G05
T1
X2.9528Y-4.3583
X2.9567Y-2.3543
X2.9567Y-2.8622
X2.9606Y-1.8819
X2.9606Y-2.1299
X2.9606Y-2.622
X2.9606Y-4.9724
X2.9685Y-3.122
X2.9724Y-3.437
X2.9724Y-4.626
X2.9764Y-3.6614
X2.9764Y-3.874
X3.0709Y-4.5039
X3.1575Y-1.8898
X3.1811Y-4.3543
X3.1929Y-4.622
X3.5039Y-1.8819
X3.8346Y-1.9016
X4.1181Y-2.8425
X4.1181Y-3.1299
X4.122Y-3.4567
X4.126Y-1.9094
X4.1299Y-2.4882
X4.1339Y-2.1693
X4.1417Y-3.9606
X4.3937Y-3.4606
X4.3976Y-2.815
X4.3976Y-3.9567
X4.4016Y-2.4882
X4.4134Y-3.6969
X4.4173Y-2.1811
X4.4488Y-4.1339
X4.4528Y-1.9134
X4.626Y-4.1417
X4.6378Y-3.9528
X4.6457Y-3.4528
X4.6496Y-4.622
X4.6575Y-2.4803
X4.6614Y-3.1732
X4.6732Y-2.8189
X4.6969Y-2.1654
X4.7953Y-1.9409
X4.874Y-4.7913
X4.9016Y-4.4016
X4.9094Y-2.7795
X4.9213Y-3.1654
X4.9252Y-2.4961
X4.9803Y-2.189
X5.122Y-2.437
X5.126Y-2.7717
X5.126Y-3.1614
X5.126Y-3.5315
X5.1299Y-4.4094
X5.1339Y-3.9921
X5.1417Y-4.7795
X5.4685Y-3.0276
X5.4764Y-3.1417
X5.5Y-4.2992
X5.5079Y-4.3976
T2
X3.0709Y-2.0409
X3.0709Y-2.1409
X3.0709Y-2.2409
X3.0709Y-2.3409
X3.0709Y-2.4409
X3.0709Y-2.5409
X3.0709Y-2.6409
X3.0709Y-2.7409
X3.0709Y-2.8409
X3.0709Y-2.9409
X3.0709Y-3.0409
X3.0709Y-3.1409
X3.0709Y-3.2409
X3.0709Y-3.3409
X3.0709Y-3.4409
X3.0709Y-3.5409
X3.0709Y-3.6409
X3.0709Y-3.7409
X3.0709Y-3.8409
X3.0709Y-3.9409
X3.1421Y-4.9819
X3.1709Y-2.0409
X3.1709Y-2.1409
X3.1709Y-2.2409
X3.1709Y-2.3409
X3.1709Y-2.4409
X3.1709Y-2.5409
X3.1709Y-2.6409
X3.1709Y-2.7409
X3.1709Y-2.8409
X3.1709Y-2.9409
X3.1709Y-3.0409
X3.1709Y-3.1409
X3.1709Y-3.2409
X3.1709Y-3.3409
X3.1709Y-3.4409
X3.1709Y-3.5409
X3.1709Y-3.6409
X3.1709Y-3.7409
X3.1709Y-3.8409
X3.1709Y-3.9409
X3.2421Y-4.9819
X3.3421Y-4.9819
X3.4421Y-4.9819
X3.6713Y-2.0406
X3.6713Y-2.1406
X3.6713Y-2.2406
X3.6713Y-2.3406
X3.6713Y-2.4406
X3.6713Y-2.5406
X3.6713Y-2.6406
X3.6713Y-2.7406
X3.6713Y-2.8406
X3.6713Y-2.9406
X3.6713Y-3.0406
X3.6713Y-3.1406
X3.6713Y-3.2406
X3.6713Y-3.3406
X3.6713Y-3.4406
X3.6713Y-3.5406
X3.6713Y-3.6406
X3.6713Y-3.7406
X3.6713Y-3.8406
X3.6713Y-3.9406
X3.7622Y-4.987
X3.7713Y-2.0406
X3.7713Y-2.1406
X3.7713Y-2.2406
X3.7713Y-2.3406
X3.7713Y-2.4406
X3.7713Y-2.5406
X3.7713Y-2.6406
X3.7713Y-2.7406
X3.7713Y-2.8406
X3.7713Y-2.9406
X3.7713Y-3.0406
X3.7713Y-3.1406
X3.7713Y-3.2406
X3.7713Y-3.3406
X3.7713Y-3.4406
X3.7713Y-3.5406
X3.7713Y-3.6406
X3.7713Y-3.7406
X3.7713Y-3.8406
X3.7713Y-3.9406
X3.8622Y-4.987
X3.9622Y-4.987
X4.0622Y-4.987
X4.4425Y-4.9906
X4.5425Y-4.9906
X4.6425Y-4.9906
X4.7425Y-4.9906
X4.7984Y-3.5713
X4.7984Y-3.6713
X4.7984Y-3.7713
X4.7984Y-3.8713
X4.8118Y-4.2028
X4.8118Y-4.3028
X4.8118Y-4.4028
X4.8118Y-4.5028
X5.0709Y-4.9941
X5.1709Y-4.9941
X5.2709Y-4.9941
X5.3709Y-4.9941
T3
X2.9685Y-4.1626
X2.9685Y-4.7626
X3.0685Y-4.1626
X3.0685Y-4.2626
X3.0685Y-4.7626
X3.1685Y-4.1626
X3.1685Y-4.7626
X3.2685Y-4.1626
X3.2685Y-4.2626
X3.2685Y-4.7626
X3.3685Y-4.1626
X3.3685Y-4.2626
X3.3685Y-4.7626
X3.4685Y-4.1626
X3.4685Y-4.2626
X3.4685Y-4.7626
X3.5685Y-4.1626
X3.5685Y-4.7626
X3.6685Y-4.1626
X3.6685Y-4.7626
X3.7685Y-4.1626
X3.7685Y-4.7626
X3.8685Y-4.1626
X3.8685Y-4.7626
X3.9685Y-4.1626
X3.9685Y-4.7626
X4.0685Y-4.1626
X4.0685Y-4.7626
X4.1685Y-4.1626
X4.1685Y-4.7626
X4.2685Y-4.1626
X4.2685Y-4.2626
X4.2685Y-4.3626
X4.2685Y-4.4626
X4.2685Y-4.5626
X4.2685Y-4.6626
X4.2685Y-4.7626
T4
X5.7559Y-4.3504
X5.7598Y-3.0906
T0
M30
