%TF.GenerationSoftware,KiCad,Pcbnew,5.1.10-1.fc34*%
%TF.CreationDate,2021-07-27T15:58:01+02:00*%
%TF.ProjectId,SpotAI,53706f74-4149-42e6-9b69-6361645f7063,rev?*%
%TF.SameCoordinates,Original*%
%TF.FileFunction,Legend,Bot*%
%TF.FilePolarity,Positive*%
%FSLAX46Y46*%
G04 Gerber Fmt 4.6, Leading zero omitted, Abs format (unit mm)*
G04 Created by KiCad (PCBNEW 5.1.10-1.fc34) date 2021-07-27 15:58:01*
%MOMM*%
%LPD*%
G01*
G04 APERTURE LIST*
%ADD10C,0.120000*%
%ADD11C,0.150000*%
G04 APERTURE END LIST*
D10*
%TO.C,J8*%
X91920000Y-50500000D02*
X97120000Y-50500000D01*
X91920000Y-98820000D02*
X91920000Y-50500000D01*
X97120000Y-101420000D02*
X97120000Y-50500000D01*
X91920000Y-98820000D02*
X94520000Y-98820000D01*
X94520000Y-98820000D02*
X94520000Y-101420000D01*
X94520000Y-101420000D02*
X97120000Y-101420000D01*
X91920000Y-100090000D02*
X91920000Y-101420000D01*
X91920000Y-101420000D02*
X93250000Y-101420000D01*
D11*
X94853333Y-101872380D02*
X94853333Y-102586666D01*
X94900952Y-102729523D01*
X94996190Y-102824761D01*
X95139047Y-102872380D01*
X95234285Y-102872380D01*
X94234285Y-102300952D02*
X94329523Y-102253333D01*
X94377142Y-102205714D01*
X94424761Y-102110476D01*
X94424761Y-102062857D01*
X94377142Y-101967619D01*
X94329523Y-101920000D01*
X94234285Y-101872380D01*
X94043809Y-101872380D01*
X93948571Y-101920000D01*
X93900952Y-101967619D01*
X93853333Y-102062857D01*
X93853333Y-102110476D01*
X93900952Y-102205714D01*
X93948571Y-102253333D01*
X94043809Y-102300952D01*
X94234285Y-102300952D01*
X94329523Y-102348571D01*
X94377142Y-102396190D01*
X94424761Y-102491428D01*
X94424761Y-102681904D01*
X94377142Y-102777142D01*
X94329523Y-102824761D01*
X94234285Y-102872380D01*
X94043809Y-102872380D01*
X93948571Y-102824761D01*
X93900952Y-102777142D01*
X93853333Y-102681904D01*
X93853333Y-102491428D01*
X93900952Y-102396190D01*
X93948571Y-102348571D01*
X94043809Y-102300952D01*
%TD*%
M02*
