%TF.GenerationSoftware,KiCad,Pcbnew,5.1.10-1.fc34*%
%TF.CreationDate,2021-07-27T15:58:01+02:00*%
%TF.ProjectId,SpotAI,53706f74-4149-42e6-9b69-6361645f7063,rev?*%
%TF.SameCoordinates,Original*%
%TF.FileFunction,Copper,L1,Top*%
%TF.FilePolarity,Positive*%
%FSLAX46Y46*%
G04 Gerber Fmt 4.6, Leading zero omitted, Abs format (unit mm)*
G04 Created by KiCad (PCBNEW 5.1.10-1.fc34) date 2021-07-27 15:58:01*
%MOMM*%
%LPD*%
G01*
G04 APERTURE LIST*
%TA.AperFunction,ComponentPad*%
%ADD10C,6.400000*%
%TD*%
%TA.AperFunction,ComponentPad*%
%ADD11O,1.700000X1.700000*%
%TD*%
%TA.AperFunction,ComponentPad*%
%ADD12R,1.700000X1.700000*%
%TD*%
%TA.AperFunction,ComponentPad*%
%ADD13C,1.665000*%
%TD*%
%TA.AperFunction,ViaPad*%
%ADD14C,0.800000*%
%TD*%
%TA.AperFunction,Conductor*%
%ADD15C,1.000000*%
%TD*%
%TA.AperFunction,Conductor*%
%ADD16C,0.250000*%
%TD*%
%TA.AperFunction,Conductor*%
%ADD17C,0.254000*%
%TD*%
%TA.AperFunction,Conductor*%
%ADD18C,0.100000*%
%TD*%
G04 APERTURE END LIST*
D10*
%TO.P,REF\u002A\u002A,1*%
%TO.N,N/C*%
X146300000Y-78500000D03*
%TD*%
%TO.P,REF\u002A\u002A,1*%
%TO.N,N/C*%
X146200000Y-110500000D03*
%TD*%
D11*
%TO.P,J1,40*%
%TO.N,I2S_DAC*%
X78000000Y-51840000D03*
%TO.P,J1,39*%
%TO.N,GND*%
X80540000Y-51840000D03*
%TO.P,J1,38*%
%TO.N,I2S_ADC*%
X78000000Y-54380000D03*
%TO.P,J1,37*%
%TO.N,Net-(J1-Pad37)*%
X80540000Y-54380000D03*
%TO.P,J1,36*%
%TO.N,Net-(J1-Pad36)*%
X78000000Y-56920000D03*
%TO.P,J1,35*%
%TO.N,I2S_LRCLK*%
X80540000Y-56920000D03*
%TO.P,J1,34*%
%TO.N,GND*%
X78000000Y-59460000D03*
%TO.P,J1,33*%
%TO.N,GPIO13*%
X80540000Y-59460000D03*
%TO.P,J1,32*%
%TO.N,GPIO12*%
X78000000Y-62000000D03*
%TO.P,J1,31*%
%TO.N,Net-(J1-Pad31)*%
X80540000Y-62000000D03*
%TO.P,J1,30*%
%TO.N,GND*%
X78000000Y-64540000D03*
%TO.P,J1,29*%
%TO.N,GPIO5*%
X80540000Y-64540000D03*
%TO.P,J1,28*%
%TO.N,Net-(J1-Pad28)*%
X78000000Y-67080000D03*
%TO.P,J1,27*%
%TO.N,Net-(J1-Pad27)*%
X80540000Y-67080000D03*
%TO.P,J1,26*%
%TO.N,Net-(J1-Pad26)*%
X78000000Y-69620000D03*
%TO.P,J1,25*%
%TO.N,GND*%
X80540000Y-69620000D03*
%TO.P,J1,24*%
%TO.N,CSO*%
X78000000Y-72160000D03*
%TO.P,J1,23*%
%TO.N,SCK*%
X80540000Y-72160000D03*
%TO.P,J1,22*%
%TO.N,Net-(J1-Pad22)*%
X78000000Y-74700000D03*
%TO.P,J1,21*%
%TO.N,Net-(J1-Pad21)*%
X80540000Y-74700000D03*
%TO.P,J1,20*%
%TO.N,GND*%
X78000000Y-77240000D03*
%TO.P,J1,19*%
%TO.N,MOSI*%
X80540000Y-77240000D03*
%TO.P,J1,18*%
%TO.N,Net-(J1-Pad18)*%
X78000000Y-79780000D03*
%TO.P,J1,17*%
%TO.N,+3V3*%
X80540000Y-79780000D03*
%TO.P,J1,16*%
%TO.N,Net-(J1-Pad16)*%
X78000000Y-82320000D03*
%TO.P,J1,15*%
%TO.N,Net-(J1-Pad15)*%
X80540000Y-82320000D03*
%TO.P,J1,14*%
%TO.N,GND*%
X78000000Y-84860000D03*
%TO.P,J1,13*%
%TO.N,Net-(J1-Pad13)*%
X80540000Y-84860000D03*
%TO.P,J1,12*%
%TO.N,I2S_CLK*%
X78000000Y-87400000D03*
%TO.P,J1,11*%
%TO.N,GPIO17*%
X80540000Y-87400000D03*
%TO.P,J1,10*%
%TO.N,J_RX*%
X78000000Y-89940000D03*
%TO.P,J1,9*%
%TO.N,GND*%
X80540000Y-89940000D03*
%TO.P,J1,8*%
%TO.N,J_TX*%
X78000000Y-92480000D03*
%TO.P,J1,7*%
%TO.N,Net-(J1-Pad7)*%
X80540000Y-92480000D03*
%TO.P,J1,6*%
%TO.N,GND*%
X78000000Y-95020000D03*
%TO.P,J1,5*%
%TO.N,I2C_SCL*%
X80540000Y-95020000D03*
%TO.P,J1,4*%
%TO.N,VCC*%
X78000000Y-97560000D03*
%TO.P,J1,3*%
%TO.N,I2C_SDA*%
X80540000Y-97560000D03*
%TO.P,J1,2*%
%TO.N,VCC*%
X78000000Y-100100000D03*
D12*
%TO.P,J1,1*%
%TO.N,Net-(J1-Pad1)*%
X80540000Y-100100000D03*
%TD*%
D11*
%TO.P,J8,40*%
%TO.N,I2S_DAC*%
X95790000Y-51830000D03*
%TO.P,J8,39*%
%TO.N,GND*%
X93250000Y-51830000D03*
%TO.P,J8,38*%
%TO.N,I2S_ADC*%
X95790000Y-54370000D03*
%TO.P,J8,37*%
%TO.N,Net-(J8-Pad37)*%
X93250000Y-54370000D03*
%TO.P,J8,36*%
%TO.N,Net-(J8-Pad36)*%
X95790000Y-56910000D03*
%TO.P,J8,35*%
%TO.N,I2S_LRCLK*%
X93250000Y-56910000D03*
%TO.P,J8,34*%
%TO.N,GND*%
X95790000Y-59450000D03*
%TO.P,J8,33*%
%TO.N,GPIO13*%
X93250000Y-59450000D03*
%TO.P,J8,32*%
%TO.N,GPIO12*%
X95790000Y-61990000D03*
%TO.P,J8,31*%
%TO.N,Net-(J8-Pad31)*%
X93250000Y-61990000D03*
%TO.P,J8,30*%
%TO.N,GND*%
X95790000Y-64530000D03*
%TO.P,J8,29*%
%TO.N,GPIO5*%
X93250000Y-64530000D03*
%TO.P,J8,28*%
%TO.N,Net-(J8-Pad28)*%
X95790000Y-67070000D03*
%TO.P,J8,27*%
%TO.N,Net-(J8-Pad27)*%
X93250000Y-67070000D03*
%TO.P,J8,26*%
%TO.N,Net-(J8-Pad26)*%
X95790000Y-69610000D03*
%TO.P,J8,25*%
%TO.N,GND*%
X93250000Y-69610000D03*
%TO.P,J8,24*%
%TO.N,CSO*%
X95790000Y-72150000D03*
%TO.P,J8,23*%
%TO.N,SCK*%
X93250000Y-72150000D03*
%TO.P,J8,22*%
%TO.N,Net-(J8-Pad22)*%
X95790000Y-74690000D03*
%TO.P,J8,21*%
%TO.N,Net-(J8-Pad21)*%
X93250000Y-74690000D03*
%TO.P,J8,20*%
%TO.N,GND*%
X95790000Y-77230000D03*
%TO.P,J8,19*%
%TO.N,MOSI*%
X93250000Y-77230000D03*
%TO.P,J8,18*%
%TO.N,Net-(J8-Pad18)*%
X95790000Y-79770000D03*
%TO.P,J8,17*%
%TO.N,+3V3*%
X93250000Y-79770000D03*
%TO.P,J8,16*%
%TO.N,Net-(J8-Pad16)*%
X95790000Y-82310000D03*
%TO.P,J8,15*%
%TO.N,Net-(J8-Pad15)*%
X93250000Y-82310000D03*
%TO.P,J8,14*%
%TO.N,GND*%
X95790000Y-84850000D03*
%TO.P,J8,13*%
%TO.N,Net-(J8-Pad13)*%
X93250000Y-84850000D03*
%TO.P,J8,12*%
%TO.N,I2S_CLK*%
X95790000Y-87390000D03*
%TO.P,J8,11*%
%TO.N,GPIO17*%
X93250000Y-87390000D03*
%TO.P,J8,10*%
%TO.N,J_RX*%
X95790000Y-89930000D03*
%TO.P,J8,9*%
%TO.N,GND*%
X93250000Y-89930000D03*
%TO.P,J8,8*%
%TO.N,J_TX*%
X95790000Y-92470000D03*
%TO.P,J8,7*%
%TO.N,Net-(J8-Pad7)*%
X93250000Y-92470000D03*
%TO.P,J8,6*%
%TO.N,GND*%
X95790000Y-95010000D03*
%TO.P,J8,5*%
%TO.N,I2C_SCL*%
X93250000Y-95010000D03*
%TO.P,J8,4*%
%TO.N,VCC*%
X95790000Y-97550000D03*
%TO.P,J8,3*%
%TO.N,I2C_SDA*%
X93250000Y-97550000D03*
%TO.P,J8,2*%
%TO.N,VCC*%
X95790000Y-100090000D03*
D12*
%TO.P,J8,1*%
%TO.N,Net-(J8-Pad1)*%
X93250000Y-100090000D03*
%TD*%
D11*
%TO.P,J7,4*%
%TO.N,GND*%
X122220000Y-114370000D03*
%TO.P,J7,3*%
%TO.N,Net-(J7-Pad3)*%
X122220000Y-111830000D03*
%TO.P,J7,2*%
%TO.N,DHT*%
X122220000Y-109290000D03*
D12*
%TO.P,J7,1*%
%TO.N,+3V3*%
X122220000Y-106750000D03*
%TD*%
D11*
%TO.P,J6,4*%
%TO.N,GND*%
X95560000Y-126670000D03*
%TO.P,J6,3*%
%TO.N,Echo*%
X98100000Y-126670000D03*
%TO.P,J6,2*%
%TO.N,TRIG*%
X100640000Y-126670000D03*
D12*
%TO.P,J6,1*%
%TO.N,+3V3*%
X103180000Y-126670000D03*
%TD*%
D11*
%TO.P,J5,4*%
%TO.N,SDA0*%
X136420000Y-126850000D03*
%TO.P,J5,3*%
%TO.N,SCL0*%
X133880000Y-126850000D03*
%TO.P,J5,2*%
%TO.N,GND*%
X131340000Y-126850000D03*
D12*
%TO.P,J5,1*%
%TO.N,+3V3*%
X128800000Y-126850000D03*
%TD*%
D11*
%TO.P,J4,4*%
%TO.N,SDA0*%
X87430000Y-126540000D03*
%TO.P,J4,3*%
%TO.N,SCL0*%
X84890000Y-126540000D03*
%TO.P,J4,2*%
%TO.N,GND*%
X82350000Y-126540000D03*
D12*
%TO.P,J4,1*%
%TO.N,+3V3*%
X79810000Y-126540000D03*
%TD*%
D11*
%TO.P,J3,4*%
%TO.N,SDA0*%
X121880000Y-98330000D03*
%TO.P,J3,3*%
%TO.N,SCL0*%
X121880000Y-95790000D03*
%TO.P,J3,2*%
%TO.N,GND*%
X121880000Y-93250000D03*
D12*
%TO.P,J3,1*%
%TO.N,+3V3*%
X121880000Y-90710000D03*
%TD*%
D11*
%TO.P,J2,4*%
%TO.N,SCL0*%
X112840000Y-126760000D03*
%TO.P,J2,3*%
%TO.N,SDA0*%
X115380000Y-126760000D03*
%TO.P,J2,2*%
%TO.N,GND*%
X117920000Y-126760000D03*
D12*
%TO.P,J2,1*%
%TO.N,+3V3*%
X120460000Y-126760000D03*
%TD*%
D13*
%TO.P,IC1,37*%
%TO.N,Net-(IC1-Pad37)*%
X77940000Y-120970000D03*
%TO.P,IC1,36*%
%TO.N,GND*%
X75400000Y-120970000D03*
%TO.P,IC1,35*%
%TO.N,Net-(IC1-Pad35)*%
X108420000Y-108270000D03*
%TO.P,IC1,34*%
%TO.N,Net-(IC1-Pad34)*%
X108420000Y-110810000D03*
%TO.P,IC1,33*%
%TO.N,GND*%
X108420000Y-113350000D03*
%TO.P,IC1,32*%
%TO.N,+3V3*%
X108420000Y-115890000D03*
%TO.P,IC1,31*%
%TO.N,Net-(IC1-Pad31)*%
X108420000Y-118430000D03*
%TO.P,IC1,30*%
%TO.N,Net-(IC1-Pad30)*%
X88100000Y-108270000D03*
%TO.P,IC1,29*%
%TO.N,Net-(IC1-Pad29)*%
X85560000Y-108270000D03*
%TO.P,IC1,28*%
%TO.N,Net-(IC1-Pad28)*%
X83020000Y-108270000D03*
%TO.P,IC1,27*%
%TO.N,Net-(IC1-Pad27)*%
X77940000Y-108270000D03*
%TO.P,IC1,26*%
%TO.N,VCC*%
X75400000Y-105730000D03*
%TO.P,IC1,25*%
%TO.N,Net-(IC1-Pad25)*%
X77940000Y-105730000D03*
%TO.P,IC1,24*%
%TO.N,+3V3*%
X80480000Y-105730000D03*
%TO.P,IC1,23*%
%TO.N,Echo*%
X83020000Y-105730000D03*
%TO.P,IC1,22*%
%TO.N,TRIG*%
X85560000Y-105730000D03*
%TO.P,IC1,21*%
%TO.N,Net-(IC1-Pad21)*%
X88100000Y-105730000D03*
%TO.P,IC1,20*%
%TO.N,DHT*%
X90640000Y-105730000D03*
%TO.P,IC1,19*%
%TO.N,SCL0*%
X93180000Y-105730000D03*
%TO.P,IC1,18*%
%TO.N,SDA0*%
X95720000Y-105730000D03*
%TO.P,IC1,17*%
%TO.N,Net-(IC1-Pad17)*%
X98260000Y-105730000D03*
%TO.P,IC1,16*%
%TO.N,Net-(IC1-Pad16)*%
X100800000Y-105730000D03*
%TO.P,IC1,15*%
%TO.N,Net-(IC1-Pad15)*%
X103340000Y-105730000D03*
%TO.P,IC1,14*%
%TO.N,Net-(IC1-Pad14)*%
X105880000Y-105730000D03*
%TO.P,IC1,13*%
%TO.N,Net-(IC1-Pad13)*%
X108420000Y-105730000D03*
%TO.P,IC1,12*%
%TO.N,Net-(IC1-Pad12)*%
X108420000Y-120970000D03*
%TO.P,IC1,11*%
%TO.N,Net-(IC1-Pad11)*%
X105880000Y-120970000D03*
%TO.P,IC1,10*%
%TO.N,J_RX*%
X103340000Y-120970000D03*
%TO.P,IC1,9*%
%TO.N,J_TX*%
X100800000Y-120970000D03*
%TO.P,IC1,8*%
%TO.N,Net-(IC1-Pad8)*%
X98260000Y-120970000D03*
%TO.P,IC1,7*%
%TO.N,Net-(IC1-Pad7)*%
X95720000Y-120970000D03*
%TO.P,IC1,6*%
%TO.N,Net-(IC1-Pad6)*%
X93180000Y-120970000D03*
%TO.P,IC1,5*%
%TO.N,Net-(IC1-Pad5)*%
X90640000Y-120970000D03*
%TO.P,IC1,4*%
%TO.N,Net-(IC1-Pad4)*%
X88100000Y-120970000D03*
%TO.P,IC1,3*%
%TO.N,Net-(IC1-Pad3)*%
X85560000Y-120970000D03*
%TO.P,IC1,2*%
%TO.N,Net-(IC1-Pad2)*%
X83020000Y-120970000D03*
%TO.P,IC1,1*%
%TO.N,Net-(IC1-Pad1)*%
X80480000Y-120970000D03*
%TD*%
D14*
%TO.N,GND*%
X138900000Y-76900000D03*
X139100000Y-79800000D03*
X139700000Y-109200000D03*
X139900000Y-111700000D03*
X130600000Y-121400000D03*
X130300000Y-112000000D03*
X130400000Y-101400000D03*
X130200000Y-89700000D03*
X130200000Y-80300000D03*
X130200000Y-70400000D03*
X130100000Y-61900000D03*
X126500000Y-55600000D03*
X121800000Y-49300000D03*
X113100000Y-48600000D03*
X104800000Y-48500000D03*
X97400000Y-48300000D03*
X89000000Y-47800000D03*
X80200000Y-48000000D03*
X75200000Y-47800000D03*
X75200000Y-54100000D03*
X75100000Y-59800000D03*
X75200000Y-66600000D03*
X75100000Y-72700000D03*
X75400000Y-79300000D03*
X75500000Y-87300000D03*
X75600000Y-93000000D03*
X75600000Y-98400000D03*
X75000000Y-110700000D03*
X80800000Y-110600000D03*
X81100000Y-117400000D03*
X75500000Y-117500000D03*
X78000000Y-114400000D03*
X75200000Y-126300000D03*
X105000000Y-55100000D03*
X104900000Y-63200000D03*
X104600000Y-72200000D03*
X104600000Y-79500000D03*
X104700000Y-87800000D03*
X105200000Y-100600000D03*
X111700000Y-100500000D03*
X117800000Y-100400000D03*
X117500000Y-105200000D03*
X113000000Y-105000000D03*
X112100000Y-93900000D03*
X111600000Y-87900000D03*
X118000000Y-87700000D03*
X118400000Y-80600000D03*
X118700000Y-71600000D03*
X118300000Y-63000000D03*
X111800000Y-63200000D03*
X111700000Y-71500000D03*
X112200000Y-55400000D03*
X119300000Y-55000000D03*
X125100000Y-63400000D03*
X124700000Y-70600000D03*
X125000000Y-80400000D03*
X123800000Y-121700000D03*
X118100000Y-117400000D03*
X124500000Y-111800000D03*
%TD*%
D15*
%TO.N,*%
X146300000Y-78500000D02*
X141400000Y-78500000D01*
X146300000Y-78500000D02*
X143900000Y-78500000D01*
X143900000Y-78500000D02*
X142600000Y-77200000D01*
X146300000Y-78500000D02*
X145200000Y-78500000D01*
X145200000Y-78500000D02*
X142900000Y-76200000D01*
X143900000Y-78500000D02*
X142600000Y-79800000D01*
X145200000Y-78500000D02*
X142800000Y-80900000D01*
X146300000Y-78500000D02*
X143000000Y-81800000D01*
X146300000Y-78500000D02*
X145900000Y-78500000D01*
X145900000Y-78500000D02*
X143000000Y-75600000D01*
X146300000Y-78500000D02*
X143000000Y-78500000D01*
X143000000Y-78500000D02*
X142100000Y-79400000D01*
X146300000Y-78500000D02*
X143200000Y-78500000D01*
X143200000Y-78500000D02*
X142200000Y-77500000D01*
X146200000Y-110500000D02*
X141900000Y-110500000D01*
X146200000Y-110500000D02*
X143500000Y-110500000D01*
X143500000Y-110500000D02*
X142500000Y-111500000D01*
X146200000Y-110500000D02*
X143600000Y-110500000D01*
X143600000Y-110500000D02*
X142500000Y-109400000D01*
X146200000Y-110500000D02*
X145000000Y-110500000D01*
X145000000Y-110500000D02*
X142900000Y-108400000D01*
X146200000Y-110500000D02*
X144800000Y-110500000D01*
X144800000Y-110500000D02*
X142700000Y-112600000D01*
X146200000Y-110500000D02*
X145900000Y-110500000D01*
X145900000Y-110500000D02*
X143400000Y-113000000D01*
X146200000Y-110500000D02*
X146000000Y-110500000D01*
X146000000Y-110500000D02*
X143600000Y-108100000D01*
D16*
%TO.N,+3V3*%
X122220000Y-107550998D02*
X122220000Y-106750000D01*
X113880998Y-115890000D02*
X122220000Y-107550998D01*
X108420000Y-115890000D02*
X113880998Y-115890000D01*
X122220000Y-106750000D02*
X124390000Y-106750000D01*
X124390000Y-106750000D02*
X125730000Y-105410000D01*
X125730000Y-105410000D02*
X125730000Y-92710000D01*
X123730000Y-90710000D02*
X121880000Y-90710000D01*
X125730000Y-92710000D02*
X123730000Y-90710000D01*
X120550000Y-126850000D02*
X120460000Y-126760000D01*
X128800000Y-126850000D02*
X120550000Y-126850000D01*
X109590000Y-115890000D02*
X108420000Y-115890000D01*
X120460000Y-126760000D02*
X109590000Y-115890000D01*
X80550000Y-79770000D02*
X80540000Y-79780000D01*
X93250000Y-79770000D02*
X80550000Y-79770000D01*
%TO.N,VCC*%
X75400000Y-102700000D02*
X78000000Y-100100000D01*
X75400000Y-105730000D02*
X75400000Y-102700000D01*
X78000000Y-100100000D02*
X78000000Y-97560000D01*
X95790000Y-97550000D02*
X95790000Y-100090000D01*
X79354999Y-98914999D02*
X78000000Y-97560000D01*
X94614999Y-98914999D02*
X79354999Y-98914999D01*
X95790000Y-100090000D02*
X94614999Y-98914999D01*
%TO.N,SCL0*%
X86942499Y-111967501D02*
X86942499Y-124487501D01*
X86942499Y-124487501D02*
X84890000Y-126540000D01*
X93180000Y-105730000D02*
X86942499Y-111967501D01*
%TO.N,SDA0*%
X89482499Y-124487501D02*
X87430000Y-126540000D01*
X89482499Y-111967501D02*
X89482499Y-124487501D01*
X95720000Y-105730000D02*
X89482499Y-111967501D01*
X114114999Y-125494999D02*
X115380000Y-126760000D01*
X88475001Y-125494999D02*
X114114999Y-125494999D01*
X87430000Y-126540000D02*
X88475001Y-125494999D01*
X135244999Y-128025001D02*
X136420000Y-126850000D01*
X116645001Y-128025001D02*
X135244999Y-128025001D01*
X115380000Y-126760000D02*
X116645001Y-128025001D01*
%TO.N,J_RX*%
X102182499Y-119812499D02*
X103340000Y-120970000D01*
X102182499Y-96322499D02*
X102182499Y-119812499D01*
X95790000Y-89930000D02*
X102182499Y-96322499D01*
%TO.N,J_TX*%
X99642499Y-119812499D02*
X100800000Y-120970000D01*
X99642499Y-96322499D02*
X99642499Y-119812499D01*
X95790000Y-92470000D02*
X99642499Y-96322499D01*
%TO.N,I2S_DAC*%
X79185001Y-50654999D02*
X78000000Y-51840000D01*
X94614999Y-50654999D02*
X79185001Y-50654999D01*
X95790000Y-51830000D02*
X94614999Y-50654999D01*
%TO.N,I2S_ADC*%
X79185001Y-53194999D02*
X78000000Y-54380000D01*
X94614999Y-53194999D02*
X79185001Y-53194999D01*
X95790000Y-54370000D02*
X94614999Y-53194999D01*
%TO.N,I2S_LRCLK*%
X80550000Y-56910000D02*
X80540000Y-56920000D01*
X93250000Y-56910000D02*
X80550000Y-56910000D01*
%TO.N,GPIO13*%
X80550000Y-59450000D02*
X80540000Y-59460000D01*
X93250000Y-59450000D02*
X80550000Y-59450000D01*
%TO.N,GPIO12*%
X79985999Y-60814999D02*
X94614999Y-60814999D01*
X94614999Y-60814999D02*
X95790000Y-61990000D01*
X78810998Y-62000000D02*
X78000000Y-62000000D01*
X79985999Y-60824999D02*
X78810998Y-62000000D01*
X79985999Y-60814999D02*
X79985999Y-60824999D01*
%TO.N,GPIO5*%
X93240000Y-64540000D02*
X93250000Y-64530000D01*
X80540000Y-64540000D02*
X93240000Y-64540000D01*
%TO.N,CSO*%
X94614999Y-70974999D02*
X95790000Y-72150000D01*
X79185001Y-70974999D02*
X94614999Y-70974999D01*
X78000000Y-72160000D02*
X79185001Y-70974999D01*
%TO.N,SCK*%
X93240000Y-72160000D02*
X93250000Y-72150000D01*
X80540000Y-72160000D02*
X93240000Y-72160000D01*
%TO.N,MOSI*%
X93240000Y-77240000D02*
X93250000Y-77230000D01*
X80540000Y-77240000D02*
X93240000Y-77240000D01*
%TO.N,I2S_CLK*%
X94614999Y-86214999D02*
X95790000Y-87390000D01*
X79185001Y-86214999D02*
X94614999Y-86214999D01*
X78000000Y-87400000D02*
X79185001Y-86214999D01*
%TO.N,GPIO17*%
X93240000Y-87400000D02*
X93250000Y-87390000D01*
X80540000Y-87400000D02*
X93240000Y-87400000D01*
%TO.N,I2C_SCL*%
X93240000Y-95020000D02*
X93250000Y-95010000D01*
X80540000Y-95020000D02*
X93240000Y-95020000D01*
%TO.N,I2C_SDA*%
X93240000Y-97560000D02*
X93250000Y-97550000D01*
X80540000Y-97560000D02*
X93240000Y-97560000D01*
%TD*%
D17*
%TO.N,GND*%
X137218156Y-44173770D02*
X137322193Y-44205181D01*
X137418150Y-44256202D01*
X137502363Y-44324884D01*
X137571637Y-44408621D01*
X137623325Y-44504216D01*
X137655462Y-44608033D01*
X137669972Y-44746093D01*
X137639967Y-72901716D01*
X137640617Y-72908385D01*
X137642993Y-73032150D01*
X137648446Y-73078572D01*
X137651397Y-73125225D01*
X137652937Y-73134310D01*
X137696773Y-73382420D01*
X137712884Y-73440047D01*
X137728179Y-73497857D01*
X137731454Y-73506471D01*
X137822646Y-73741342D01*
X137849628Y-73794712D01*
X137875877Y-73848483D01*
X137880763Y-73856296D01*
X138015838Y-74068981D01*
X138052677Y-74116100D01*
X138072418Y-74142090D01*
X138073006Y-74201262D01*
X138075693Y-74226013D01*
X138083156Y-74249764D01*
X138095109Y-74271603D01*
X138111094Y-74290690D01*
X138130495Y-74306292D01*
X138152567Y-74317810D01*
X138176462Y-74324800D01*
X138198540Y-74326992D01*
X138244851Y-74327524D01*
X138268990Y-74352855D01*
X138314253Y-74391897D01*
X138359030Y-74431626D01*
X138366525Y-74436987D01*
X138572456Y-74582152D01*
X138624459Y-74611670D01*
X138676084Y-74641935D01*
X138684478Y-74645738D01*
X138914683Y-74748139D01*
X138971442Y-74766998D01*
X139027949Y-74786655D01*
X139036922Y-74788755D01*
X139260146Y-74839390D01*
X139300281Y-74851496D01*
X139397260Y-74860893D01*
X142141846Y-74856556D01*
X142051717Y-74966378D01*
X141946324Y-75163554D01*
X141881423Y-75377502D01*
X141859509Y-75600000D01*
X141871060Y-75717277D01*
X141846324Y-75763554D01*
X141781423Y-75977502D01*
X141759509Y-76200000D01*
X141780177Y-76409849D01*
X141739841Y-76458999D01*
X141566378Y-76551717D01*
X141393552Y-76693552D01*
X141251717Y-76866378D01*
X141146324Y-77063554D01*
X141081423Y-77277502D01*
X141067914Y-77414666D01*
X140963553Y-77446324D01*
X140766377Y-77551716D01*
X140593551Y-77693551D01*
X140451716Y-77866377D01*
X140346324Y-78063553D01*
X140281423Y-78277501D01*
X140259509Y-78500000D01*
X140281423Y-78722499D01*
X140346324Y-78936447D01*
X140451716Y-79133623D01*
X140593551Y-79306449D01*
X140766377Y-79448284D01*
X140963553Y-79553676D01*
X140974986Y-79557144D01*
X140981423Y-79622498D01*
X141046324Y-79836446D01*
X141151717Y-80033622D01*
X141293552Y-80206448D01*
X141466378Y-80348283D01*
X141663554Y-80453676D01*
X141669707Y-80455542D01*
X141727421Y-80525868D01*
X141681423Y-80677502D01*
X141659509Y-80900000D01*
X141681423Y-81122498D01*
X141746324Y-81336446D01*
X141851717Y-81533622D01*
X141883125Y-81571892D01*
X141881423Y-81577502D01*
X141859509Y-81800000D01*
X141881423Y-82022498D01*
X141932372Y-82190452D01*
X139864483Y-82200160D01*
X139839932Y-82202694D01*
X139592657Y-82222396D01*
X139539671Y-82231887D01*
X139486409Y-82239667D01*
X139477480Y-82241945D01*
X139173563Y-82321735D01*
X139117500Y-82342485D01*
X139061079Y-82362476D01*
X139052763Y-82366445D01*
X138770130Y-82503747D01*
X138719123Y-82535017D01*
X138667700Y-82565562D01*
X138660312Y-82571071D01*
X138657762Y-82573000D01*
X138300000Y-82573000D01*
X138275224Y-82575440D01*
X138251399Y-82582667D01*
X138229443Y-82594403D01*
X138210197Y-82610197D01*
X138194403Y-82629443D01*
X138182667Y-82651399D01*
X138175440Y-82675224D01*
X138173001Y-82699473D01*
X138171717Y-83008998D01*
X138106103Y-83082668D01*
X138070847Y-83131035D01*
X138034958Y-83178852D01*
X138030227Y-83186760D01*
X137870800Y-83457527D01*
X137845644Y-83511747D01*
X137819692Y-83565696D01*
X137816588Y-83574373D01*
X137712789Y-83870950D01*
X137698639Y-83929041D01*
X137683665Y-83986985D01*
X137682305Y-83996100D01*
X137645314Y-84256349D01*
X137641326Y-84269404D01*
X137631586Y-84366349D01*
X137589939Y-105531119D01*
X137599298Y-105628101D01*
X137599777Y-105629691D01*
X137618722Y-105816254D01*
X137630288Y-105873622D01*
X137640815Y-105931155D01*
X137643412Y-105939997D01*
X137718868Y-106190404D01*
X137741629Y-106245710D01*
X137763623Y-106301349D01*
X137767888Y-106309518D01*
X137890544Y-106540500D01*
X137923604Y-106590318D01*
X137955999Y-106640644D01*
X137961770Y-106647829D01*
X138073063Y-106784438D01*
X138073001Y-106799473D01*
X138075339Y-106824259D01*
X138082467Y-106848114D01*
X138094112Y-106870119D01*
X138109826Y-106889429D01*
X138129005Y-106905303D01*
X138150913Y-106917130D01*
X138174707Y-106924456D01*
X138198413Y-106926990D01*
X138201857Y-106927033D01*
X138210611Y-106936108D01*
X138217668Y-106942035D01*
X138419090Y-107108849D01*
X138468671Y-107142331D01*
X138517767Y-107176493D01*
X138525841Y-107180937D01*
X138755827Y-107305449D01*
X138810972Y-107328665D01*
X138865761Y-107352637D01*
X138874543Y-107355428D01*
X139124335Y-107432899D01*
X139182920Y-107444958D01*
X139241343Y-107457836D01*
X139250499Y-107458868D01*
X139250501Y-107458868D01*
X139509663Y-107486248D01*
X139540551Y-107489619D01*
X142186215Y-107517506D01*
X142093552Y-107593552D01*
X141951717Y-107766378D01*
X141846324Y-107963554D01*
X141781423Y-108177502D01*
X141759509Y-108400000D01*
X141772214Y-108528996D01*
X141693552Y-108593552D01*
X141551717Y-108766378D01*
X141446324Y-108963554D01*
X141381423Y-109177502D01*
X141359509Y-109400000D01*
X141369047Y-109496838D01*
X141266377Y-109551716D01*
X141093551Y-109693551D01*
X140951716Y-109866377D01*
X140846324Y-110063553D01*
X140781423Y-110277501D01*
X140759509Y-110500000D01*
X140781423Y-110722499D01*
X140846324Y-110936447D01*
X140951716Y-111133623D01*
X141093551Y-111306449D01*
X141266377Y-111448284D01*
X141359690Y-111498161D01*
X141359509Y-111500000D01*
X141381423Y-111722498D01*
X141446324Y-111936446D01*
X141551717Y-112133622D01*
X141627421Y-112225868D01*
X141581423Y-112377502D01*
X141559509Y-112600000D01*
X141581423Y-112822498D01*
X141646324Y-113036446D01*
X141751717Y-113233622D01*
X141876843Y-113386089D01*
X139939690Y-113379900D01*
X139918881Y-113381882D01*
X139701137Y-113394994D01*
X139654252Y-113402459D01*
X139607060Y-113407495D01*
X139598049Y-113409425D01*
X139234107Y-113490055D01*
X139177247Y-113508631D01*
X139120131Y-113526412D01*
X139111667Y-113530056D01*
X138770317Y-113679840D01*
X138718149Y-113709106D01*
X138665571Y-113737643D01*
X138657976Y-113742861D01*
X138471370Y-113873000D01*
X138200000Y-113873000D01*
X138175224Y-113875440D01*
X138151399Y-113882667D01*
X138129443Y-113894403D01*
X138110197Y-113910197D01*
X138094403Y-113929443D01*
X138082667Y-113951399D01*
X138075440Y-113975224D01*
X138073003Y-114000841D01*
X138074497Y-114226486D01*
X137995747Y-114308296D01*
X137958704Y-114355187D01*
X137920931Y-114401653D01*
X137915898Y-114409372D01*
X137734611Y-114691668D01*
X137717111Y-114713144D01*
X137656226Y-114828014D01*
X137618920Y-114952555D01*
X137609708Y-115049551D01*
X137647948Y-126014824D01*
X137573475Y-125903368D01*
X137366632Y-125696525D01*
X137123411Y-125534010D01*
X136853158Y-125422068D01*
X136566260Y-125365000D01*
X136273740Y-125365000D01*
X135986842Y-125422068D01*
X135716589Y-125534010D01*
X135473368Y-125696525D01*
X135266525Y-125903368D01*
X135150000Y-126077760D01*
X135033475Y-125903368D01*
X134826632Y-125696525D01*
X134583411Y-125534010D01*
X134313158Y-125422068D01*
X134026260Y-125365000D01*
X133733740Y-125365000D01*
X133446842Y-125422068D01*
X133176589Y-125534010D01*
X132933368Y-125696525D01*
X132726525Y-125903368D01*
X132604805Y-126085534D01*
X132535178Y-125968645D01*
X132340269Y-125752412D01*
X132106920Y-125578359D01*
X131844099Y-125453175D01*
X131696890Y-125408524D01*
X131467000Y-125529845D01*
X131467000Y-126723000D01*
X131487000Y-126723000D01*
X131487000Y-126977000D01*
X131467000Y-126977000D01*
X131467000Y-126997000D01*
X131213000Y-126997000D01*
X131213000Y-126977000D01*
X131193000Y-126977000D01*
X131193000Y-126723000D01*
X131213000Y-126723000D01*
X131213000Y-125529845D01*
X130983110Y-125408524D01*
X130835901Y-125453175D01*
X130573080Y-125578359D01*
X130339731Y-125752412D01*
X130263966Y-125836466D01*
X130239502Y-125755820D01*
X130180537Y-125645506D01*
X130101185Y-125548815D01*
X130004494Y-125469463D01*
X129894180Y-125410498D01*
X129774482Y-125374188D01*
X129650000Y-125361928D01*
X127950000Y-125361928D01*
X127825518Y-125374188D01*
X127705820Y-125410498D01*
X127595506Y-125469463D01*
X127498815Y-125548815D01*
X127419463Y-125645506D01*
X127360498Y-125755820D01*
X127324188Y-125875518D01*
X127311928Y-126000000D01*
X127311928Y-126090000D01*
X121948072Y-126090000D01*
X121948072Y-125910000D01*
X121935812Y-125785518D01*
X121899502Y-125665820D01*
X121840537Y-125555506D01*
X121761185Y-125458815D01*
X121664494Y-125379463D01*
X121554180Y-125320498D01*
X121434482Y-125284188D01*
X121310000Y-125271928D01*
X120046731Y-125271928D01*
X111424801Y-116650000D01*
X113843676Y-116650000D01*
X113880998Y-116653676D01*
X113918320Y-116650000D01*
X113918331Y-116650000D01*
X114029984Y-116639003D01*
X114173245Y-116595546D01*
X114305274Y-116524974D01*
X114420999Y-116430001D01*
X114444802Y-116400997D01*
X116118909Y-114726890D01*
X120778524Y-114726890D01*
X120823175Y-114874099D01*
X120948359Y-115136920D01*
X121122412Y-115370269D01*
X121338645Y-115565178D01*
X121588748Y-115714157D01*
X121863109Y-115811481D01*
X122093000Y-115690814D01*
X122093000Y-114497000D01*
X122347000Y-114497000D01*
X122347000Y-115690814D01*
X122576891Y-115811481D01*
X122851252Y-115714157D01*
X123101355Y-115565178D01*
X123317588Y-115370269D01*
X123491641Y-115136920D01*
X123616825Y-114874099D01*
X123661476Y-114726890D01*
X123540155Y-114497000D01*
X122347000Y-114497000D01*
X122093000Y-114497000D01*
X120899845Y-114497000D01*
X120778524Y-114726890D01*
X116118909Y-114726890D01*
X120888891Y-109956909D01*
X120904010Y-109993411D01*
X121066525Y-110236632D01*
X121273368Y-110443475D01*
X121447760Y-110560000D01*
X121273368Y-110676525D01*
X121066525Y-110883368D01*
X120904010Y-111126589D01*
X120792068Y-111396842D01*
X120735000Y-111683740D01*
X120735000Y-111976260D01*
X120792068Y-112263158D01*
X120904010Y-112533411D01*
X121066525Y-112776632D01*
X121273368Y-112983475D01*
X121455534Y-113105195D01*
X121338645Y-113174822D01*
X121122412Y-113369731D01*
X120948359Y-113603080D01*
X120823175Y-113865901D01*
X120778524Y-114013110D01*
X120899845Y-114243000D01*
X122093000Y-114243000D01*
X122093000Y-114223000D01*
X122347000Y-114223000D01*
X122347000Y-114243000D01*
X123540155Y-114243000D01*
X123661476Y-114013110D01*
X123616825Y-113865901D01*
X123491641Y-113603080D01*
X123317588Y-113369731D01*
X123101355Y-113174822D01*
X122984466Y-113105195D01*
X123166632Y-112983475D01*
X123373475Y-112776632D01*
X123535990Y-112533411D01*
X123647932Y-112263158D01*
X123705000Y-111976260D01*
X123705000Y-111683740D01*
X123647932Y-111396842D01*
X123535990Y-111126589D01*
X123373475Y-110883368D01*
X123166632Y-110676525D01*
X122992240Y-110560000D01*
X123166632Y-110443475D01*
X123373475Y-110236632D01*
X123535990Y-109993411D01*
X123647932Y-109723158D01*
X123705000Y-109436260D01*
X123705000Y-109143740D01*
X123647932Y-108856842D01*
X123535990Y-108586589D01*
X123373475Y-108343368D01*
X123241620Y-108211513D01*
X123314180Y-108189502D01*
X123424494Y-108130537D01*
X123521185Y-108051185D01*
X123600537Y-107954494D01*
X123659502Y-107844180D01*
X123695812Y-107724482D01*
X123708072Y-107600000D01*
X123708072Y-107510000D01*
X124352678Y-107510000D01*
X124390000Y-107513676D01*
X124427322Y-107510000D01*
X124427333Y-107510000D01*
X124538986Y-107499003D01*
X124682247Y-107455546D01*
X124814276Y-107384974D01*
X124930001Y-107290001D01*
X124953804Y-107260997D01*
X126241004Y-105973798D01*
X126270001Y-105950001D01*
X126364974Y-105834276D01*
X126435546Y-105702247D01*
X126479003Y-105558986D01*
X126490000Y-105447333D01*
X126490000Y-105447324D01*
X126493676Y-105410001D01*
X126490000Y-105372678D01*
X126490000Y-92747322D01*
X126493676Y-92709999D01*
X126490000Y-92672676D01*
X126490000Y-92672667D01*
X126479003Y-92561014D01*
X126435546Y-92417753D01*
X126364974Y-92285723D01*
X126293799Y-92198997D01*
X126270001Y-92169999D01*
X126241003Y-92146201D01*
X124293804Y-90199003D01*
X124270001Y-90169999D01*
X124154276Y-90075026D01*
X124022247Y-90004454D01*
X123878986Y-89960997D01*
X123767333Y-89950000D01*
X123767322Y-89950000D01*
X123730000Y-89946324D01*
X123692678Y-89950000D01*
X123368072Y-89950000D01*
X123368072Y-89860000D01*
X123355812Y-89735518D01*
X123319502Y-89615820D01*
X123260537Y-89505506D01*
X123181185Y-89408815D01*
X123084494Y-89329463D01*
X122974180Y-89270498D01*
X122854482Y-89234188D01*
X122730000Y-89221928D01*
X121030000Y-89221928D01*
X120905518Y-89234188D01*
X120785820Y-89270498D01*
X120675506Y-89329463D01*
X120578815Y-89408815D01*
X120499463Y-89505506D01*
X120440498Y-89615820D01*
X120404188Y-89735518D01*
X120391928Y-89860000D01*
X120391928Y-91560000D01*
X120404188Y-91684482D01*
X120440498Y-91804180D01*
X120499463Y-91914494D01*
X120578815Y-92011185D01*
X120675506Y-92090537D01*
X120785820Y-92149502D01*
X120866466Y-92173966D01*
X120782412Y-92249731D01*
X120608359Y-92483080D01*
X120483175Y-92745901D01*
X120438524Y-92893110D01*
X120559845Y-93123000D01*
X121753000Y-93123000D01*
X121753000Y-93103000D01*
X122007000Y-93103000D01*
X122007000Y-93123000D01*
X123200155Y-93123000D01*
X123321476Y-92893110D01*
X123276825Y-92745901D01*
X123151641Y-92483080D01*
X122977588Y-92249731D01*
X122893534Y-92173966D01*
X122974180Y-92149502D01*
X123084494Y-92090537D01*
X123181185Y-92011185D01*
X123260537Y-91914494D01*
X123319502Y-91804180D01*
X123355812Y-91684482D01*
X123368072Y-91560000D01*
X123368072Y-91470000D01*
X123415199Y-91470000D01*
X124970001Y-93024803D01*
X124970000Y-105095198D01*
X124075199Y-105990000D01*
X123708072Y-105990000D01*
X123708072Y-105900000D01*
X123695812Y-105775518D01*
X123659502Y-105655820D01*
X123600537Y-105545506D01*
X123521185Y-105448815D01*
X123424494Y-105369463D01*
X123314180Y-105310498D01*
X123194482Y-105274188D01*
X123070000Y-105261928D01*
X121370000Y-105261928D01*
X121245518Y-105274188D01*
X121125820Y-105310498D01*
X121015506Y-105369463D01*
X120918815Y-105448815D01*
X120839463Y-105545506D01*
X120780498Y-105655820D01*
X120744188Y-105775518D01*
X120731928Y-105900000D01*
X120731928Y-107600000D01*
X120744188Y-107724482D01*
X120780498Y-107844180D01*
X120805410Y-107890786D01*
X113566197Y-115130000D01*
X109677132Y-115130000D01*
X109559882Y-114954523D01*
X109355477Y-114750118D01*
X109163989Y-114622170D01*
X109180783Y-114613193D01*
X109256301Y-114365906D01*
X108420000Y-113529605D01*
X107583699Y-114365906D01*
X107659217Y-114613193D01*
X107676877Y-114621591D01*
X107484523Y-114750118D01*
X107280118Y-114954523D01*
X107119518Y-115194878D01*
X107008895Y-115461946D01*
X106952500Y-115745464D01*
X106952500Y-116034536D01*
X107008895Y-116318054D01*
X107119518Y-116585122D01*
X107280118Y-116825477D01*
X107484523Y-117029882D01*
X107679258Y-117160000D01*
X107484523Y-117290118D01*
X107280118Y-117494523D01*
X107119518Y-117734878D01*
X107008895Y-118001946D01*
X106952500Y-118285464D01*
X106952500Y-118574536D01*
X107008895Y-118858054D01*
X107119518Y-119125122D01*
X107280118Y-119365477D01*
X107484523Y-119569882D01*
X107679258Y-119700000D01*
X107484523Y-119830118D01*
X107280118Y-120034523D01*
X107150000Y-120229258D01*
X107019882Y-120034523D01*
X106815477Y-119830118D01*
X106575122Y-119669518D01*
X106308054Y-119558895D01*
X106024536Y-119502500D01*
X105735464Y-119502500D01*
X105451946Y-119558895D01*
X105184878Y-119669518D01*
X104944523Y-119830118D01*
X104740118Y-120034523D01*
X104610000Y-120229258D01*
X104479882Y-120034523D01*
X104275477Y-119830118D01*
X104035122Y-119669518D01*
X103768054Y-119558895D01*
X103484536Y-119502500D01*
X103195464Y-119502500D01*
X102988474Y-119543673D01*
X102942499Y-119497698D01*
X102942499Y-113419226D01*
X106947026Y-113419226D01*
X106988834Y-113705259D01*
X107085641Y-113977639D01*
X107156807Y-114110783D01*
X107404094Y-114186301D01*
X108240395Y-113350000D01*
X108599605Y-113350000D01*
X109435906Y-114186301D01*
X109683193Y-114110783D01*
X109807343Y-113849727D01*
X109878177Y-113569468D01*
X109892974Y-113280774D01*
X109851166Y-112994741D01*
X109754359Y-112722361D01*
X109683193Y-112589217D01*
X109435906Y-112513699D01*
X108599605Y-113350000D01*
X108240395Y-113350000D01*
X107404094Y-112513699D01*
X107156807Y-112589217D01*
X107032657Y-112850273D01*
X106961823Y-113130532D01*
X106947026Y-113419226D01*
X102942499Y-113419226D01*
X102942499Y-107147182D01*
X103195464Y-107197500D01*
X103484536Y-107197500D01*
X103768054Y-107141105D01*
X104035122Y-107030482D01*
X104275477Y-106869882D01*
X104479882Y-106665477D01*
X104610000Y-106470742D01*
X104740118Y-106665477D01*
X104944523Y-106869882D01*
X105184878Y-107030482D01*
X105451946Y-107141105D01*
X105735464Y-107197500D01*
X106024536Y-107197500D01*
X106308054Y-107141105D01*
X106575122Y-107030482D01*
X106815477Y-106869882D01*
X107019882Y-106665477D01*
X107150000Y-106470742D01*
X107280118Y-106665477D01*
X107484523Y-106869882D01*
X107679258Y-107000000D01*
X107484523Y-107130118D01*
X107280118Y-107334523D01*
X107119518Y-107574878D01*
X107008895Y-107841946D01*
X106952500Y-108125464D01*
X106952500Y-108414536D01*
X107008895Y-108698054D01*
X107119518Y-108965122D01*
X107280118Y-109205477D01*
X107484523Y-109409882D01*
X107679258Y-109540000D01*
X107484523Y-109670118D01*
X107280118Y-109874523D01*
X107119518Y-110114878D01*
X107008895Y-110381946D01*
X106952500Y-110665464D01*
X106952500Y-110954536D01*
X107008895Y-111238054D01*
X107119518Y-111505122D01*
X107280118Y-111745477D01*
X107484523Y-111949882D01*
X107676011Y-112077830D01*
X107659217Y-112086807D01*
X107583699Y-112334094D01*
X108420000Y-113170395D01*
X109256301Y-112334094D01*
X109180783Y-112086807D01*
X109163123Y-112078409D01*
X109355477Y-111949882D01*
X109559882Y-111745477D01*
X109720482Y-111505122D01*
X109831105Y-111238054D01*
X109887500Y-110954536D01*
X109887500Y-110665464D01*
X109831105Y-110381946D01*
X109764696Y-110221620D01*
X111861220Y-110221620D01*
X111861220Y-110678380D01*
X111950329Y-111126363D01*
X112125123Y-111548354D01*
X112378886Y-111928136D01*
X112701864Y-112251114D01*
X113081646Y-112504877D01*
X113503637Y-112679671D01*
X113951620Y-112768780D01*
X114408380Y-112768780D01*
X114856363Y-112679671D01*
X115278354Y-112504877D01*
X115658136Y-112251114D01*
X115981114Y-111928136D01*
X116234877Y-111548354D01*
X116409671Y-111126363D01*
X116498780Y-110678380D01*
X116498780Y-110221620D01*
X116409671Y-109773637D01*
X116234877Y-109351646D01*
X115981114Y-108971864D01*
X115658136Y-108648886D01*
X115278354Y-108395123D01*
X114856363Y-108220329D01*
X114408380Y-108131220D01*
X113951620Y-108131220D01*
X113503637Y-108220329D01*
X113081646Y-108395123D01*
X112701864Y-108648886D01*
X112378886Y-108971864D01*
X112125123Y-109351646D01*
X111950329Y-109773637D01*
X111861220Y-110221620D01*
X109764696Y-110221620D01*
X109720482Y-110114878D01*
X109559882Y-109874523D01*
X109355477Y-109670118D01*
X109160742Y-109540000D01*
X109355477Y-109409882D01*
X109559882Y-109205477D01*
X109720482Y-108965122D01*
X109831105Y-108698054D01*
X109887500Y-108414536D01*
X109887500Y-108125464D01*
X109831105Y-107841946D01*
X109720482Y-107574878D01*
X109559882Y-107334523D01*
X109355477Y-107130118D01*
X109160742Y-107000000D01*
X109355477Y-106869882D01*
X109559882Y-106665477D01*
X109720482Y-106425122D01*
X109831105Y-106158054D01*
X109887500Y-105874536D01*
X109887500Y-105585464D01*
X109831105Y-105301946D01*
X109720482Y-105034878D01*
X109559882Y-104794523D01*
X109355477Y-104590118D01*
X109115122Y-104429518D01*
X108848054Y-104318895D01*
X108564536Y-104262500D01*
X108275464Y-104262500D01*
X107991946Y-104318895D01*
X107724878Y-104429518D01*
X107484523Y-104590118D01*
X107280118Y-104794523D01*
X107150000Y-104989258D01*
X107019882Y-104794523D01*
X106815477Y-104590118D01*
X106575122Y-104429518D01*
X106308054Y-104318895D01*
X106024536Y-104262500D01*
X105735464Y-104262500D01*
X105451946Y-104318895D01*
X105184878Y-104429518D01*
X104944523Y-104590118D01*
X104740118Y-104794523D01*
X104610000Y-104989258D01*
X104479882Y-104794523D01*
X104275477Y-104590118D01*
X104035122Y-104429518D01*
X103768054Y-104318895D01*
X103484536Y-104262500D01*
X103195464Y-104262500D01*
X102942499Y-104312818D01*
X102942499Y-96359824D01*
X102946175Y-96322499D01*
X102942499Y-96285174D01*
X102942499Y-96285166D01*
X102931502Y-96173513D01*
X102888045Y-96030252D01*
X102817473Y-95898223D01*
X102722500Y-95782498D01*
X102693503Y-95758701D01*
X102578542Y-95643740D01*
X120395000Y-95643740D01*
X120395000Y-95936260D01*
X120452068Y-96223158D01*
X120564010Y-96493411D01*
X120726525Y-96736632D01*
X120933368Y-96943475D01*
X121107760Y-97060000D01*
X120933368Y-97176525D01*
X120726525Y-97383368D01*
X120564010Y-97626589D01*
X120452068Y-97896842D01*
X120395000Y-98183740D01*
X120395000Y-98476260D01*
X120452068Y-98763158D01*
X120564010Y-99033411D01*
X120726525Y-99276632D01*
X120933368Y-99483475D01*
X121176589Y-99645990D01*
X121446842Y-99757932D01*
X121733740Y-99815000D01*
X122026260Y-99815000D01*
X122313158Y-99757932D01*
X122583411Y-99645990D01*
X122826632Y-99483475D01*
X123033475Y-99276632D01*
X123195990Y-99033411D01*
X123307932Y-98763158D01*
X123365000Y-98476260D01*
X123365000Y-98183740D01*
X123307932Y-97896842D01*
X123195990Y-97626589D01*
X123033475Y-97383368D01*
X122826632Y-97176525D01*
X122652240Y-97060000D01*
X122826632Y-96943475D01*
X123033475Y-96736632D01*
X123195990Y-96493411D01*
X123307932Y-96223158D01*
X123365000Y-95936260D01*
X123365000Y-95643740D01*
X123307932Y-95356842D01*
X123195990Y-95086589D01*
X123033475Y-94843368D01*
X122826632Y-94636525D01*
X122644466Y-94514805D01*
X122761355Y-94445178D01*
X122977588Y-94250269D01*
X123151641Y-94016920D01*
X123276825Y-93754099D01*
X123321476Y-93606890D01*
X123200155Y-93377000D01*
X122007000Y-93377000D01*
X122007000Y-93397000D01*
X121753000Y-93397000D01*
X121753000Y-93377000D01*
X120559845Y-93377000D01*
X120438524Y-93606890D01*
X120483175Y-93754099D01*
X120608359Y-94016920D01*
X120782412Y-94250269D01*
X120998645Y-94445178D01*
X121115534Y-94514805D01*
X120933368Y-94636525D01*
X120726525Y-94843368D01*
X120564010Y-95086589D01*
X120452068Y-95356842D01*
X120395000Y-95643740D01*
X102578542Y-95643740D01*
X97231209Y-90296408D01*
X97275000Y-90076260D01*
X97275000Y-89783740D01*
X97217932Y-89496842D01*
X97105990Y-89226589D01*
X96943475Y-88983368D01*
X96736632Y-88776525D01*
X96562240Y-88660000D01*
X96736632Y-88543475D01*
X96943475Y-88336632D01*
X97105990Y-88093411D01*
X97217932Y-87823158D01*
X97275000Y-87536260D01*
X97275000Y-87243740D01*
X97217932Y-86956842D01*
X97105990Y-86686589D01*
X96943475Y-86443368D01*
X96736632Y-86236525D01*
X96554466Y-86114805D01*
X96671355Y-86045178D01*
X96887588Y-85850269D01*
X97061641Y-85616920D01*
X97186825Y-85354099D01*
X97231476Y-85206890D01*
X97110155Y-84977000D01*
X95917000Y-84977000D01*
X95917000Y-84997000D01*
X95663000Y-84997000D01*
X95663000Y-84977000D01*
X95643000Y-84977000D01*
X95643000Y-84723000D01*
X95663000Y-84723000D01*
X95663000Y-84703000D01*
X95917000Y-84703000D01*
X95917000Y-84723000D01*
X97110155Y-84723000D01*
X97231476Y-84493110D01*
X97186825Y-84345901D01*
X97061641Y-84083080D01*
X96887588Y-83849731D01*
X96671355Y-83654822D01*
X96554466Y-83585195D01*
X96736632Y-83463475D01*
X96943475Y-83256632D01*
X97105990Y-83013411D01*
X97217932Y-82743158D01*
X97275000Y-82456260D01*
X97275000Y-82163740D01*
X97217932Y-81876842D01*
X97105990Y-81606589D01*
X96943475Y-81363368D01*
X96736632Y-81156525D01*
X96562240Y-81040000D01*
X96736632Y-80923475D01*
X96943475Y-80716632D01*
X97105990Y-80473411D01*
X97217932Y-80203158D01*
X97275000Y-79916260D01*
X97275000Y-79623740D01*
X97217932Y-79336842D01*
X97105990Y-79066589D01*
X96943475Y-78823368D01*
X96736632Y-78616525D01*
X96554466Y-78494805D01*
X96671355Y-78425178D01*
X96887588Y-78230269D01*
X96901486Y-78211635D01*
X111751371Y-78211635D01*
X111751371Y-78668365D01*
X111840474Y-79116319D01*
X112015258Y-79538283D01*
X112269003Y-79918040D01*
X112591960Y-80240997D01*
X112971717Y-80494742D01*
X113393681Y-80669526D01*
X113841635Y-80758629D01*
X114298365Y-80758629D01*
X114746319Y-80669526D01*
X115168283Y-80494742D01*
X115548040Y-80240997D01*
X115870997Y-79918040D01*
X116124742Y-79538283D01*
X116299526Y-79116319D01*
X116388629Y-78668365D01*
X116388629Y-78211635D01*
X116299526Y-77763681D01*
X116124742Y-77341717D01*
X115870997Y-76961960D01*
X115548040Y-76639003D01*
X115168283Y-76385258D01*
X114746319Y-76210474D01*
X114298365Y-76121371D01*
X113841635Y-76121371D01*
X113393681Y-76210474D01*
X112971717Y-76385258D01*
X112591960Y-76639003D01*
X112269003Y-76961960D01*
X112015258Y-77341717D01*
X111840474Y-77763681D01*
X111751371Y-78211635D01*
X96901486Y-78211635D01*
X97061641Y-77996920D01*
X97186825Y-77734099D01*
X97231476Y-77586890D01*
X97110155Y-77357000D01*
X95917000Y-77357000D01*
X95917000Y-77377000D01*
X95663000Y-77377000D01*
X95663000Y-77357000D01*
X95643000Y-77357000D01*
X95643000Y-77103000D01*
X95663000Y-77103000D01*
X95663000Y-77083000D01*
X95917000Y-77083000D01*
X95917000Y-77103000D01*
X97110155Y-77103000D01*
X97231476Y-76873110D01*
X97186825Y-76725901D01*
X97061641Y-76463080D01*
X96887588Y-76229731D01*
X96671355Y-76034822D01*
X96554466Y-75965195D01*
X96736632Y-75843475D01*
X96943475Y-75636632D01*
X97105990Y-75393411D01*
X97217932Y-75123158D01*
X97275000Y-74836260D01*
X97275000Y-74543740D01*
X97217932Y-74256842D01*
X97105990Y-73986589D01*
X96943475Y-73743368D01*
X96736632Y-73536525D01*
X96562240Y-73420000D01*
X96736632Y-73303475D01*
X96943475Y-73096632D01*
X97105990Y-72853411D01*
X97217932Y-72583158D01*
X97275000Y-72296260D01*
X97275000Y-72003740D01*
X97217932Y-71716842D01*
X97105990Y-71446589D01*
X96943475Y-71203368D01*
X96736632Y-70996525D01*
X96562240Y-70880000D01*
X96736632Y-70763475D01*
X96943475Y-70556632D01*
X97105990Y-70313411D01*
X97217932Y-70043158D01*
X97275000Y-69756260D01*
X97275000Y-69463740D01*
X97217932Y-69176842D01*
X97105990Y-68906589D01*
X96943475Y-68663368D01*
X96736632Y-68456525D01*
X96562240Y-68340000D01*
X96736632Y-68223475D01*
X96943475Y-68016632D01*
X97105990Y-67773411D01*
X97217932Y-67503158D01*
X97275000Y-67216260D01*
X97275000Y-66923740D01*
X97217932Y-66636842D01*
X97105990Y-66366589D01*
X96943475Y-66123368D01*
X96736632Y-65916525D01*
X96554466Y-65794805D01*
X96671355Y-65725178D01*
X96887588Y-65530269D01*
X97061641Y-65296920D01*
X97186825Y-65034099D01*
X97231476Y-64886890D01*
X97110155Y-64657000D01*
X95917000Y-64657000D01*
X95917000Y-64677000D01*
X95663000Y-64677000D01*
X95663000Y-64657000D01*
X95643000Y-64657000D01*
X95643000Y-64403000D01*
X95663000Y-64403000D01*
X95663000Y-64383000D01*
X95917000Y-64383000D01*
X95917000Y-64403000D01*
X97110155Y-64403000D01*
X97231476Y-64173110D01*
X97186825Y-64025901D01*
X97061641Y-63763080D01*
X96887588Y-63529731D01*
X96671355Y-63334822D01*
X96554466Y-63265195D01*
X96736632Y-63143475D01*
X96943475Y-62936632D01*
X97105990Y-62693411D01*
X97217932Y-62423158D01*
X97275000Y-62136260D01*
X97275000Y-61843740D01*
X97217932Y-61556842D01*
X97105990Y-61286589D01*
X96943475Y-61043368D01*
X96736632Y-60836525D01*
X96554466Y-60714805D01*
X96671355Y-60645178D01*
X96887588Y-60450269D01*
X97061641Y-60216920D01*
X97186825Y-59954099D01*
X97231476Y-59806890D01*
X97110155Y-59577000D01*
X95917000Y-59577000D01*
X95917000Y-59597000D01*
X95663000Y-59597000D01*
X95663000Y-59577000D01*
X95643000Y-59577000D01*
X95643000Y-59323000D01*
X95663000Y-59323000D01*
X95663000Y-59303000D01*
X95917000Y-59303000D01*
X95917000Y-59323000D01*
X97110155Y-59323000D01*
X97231476Y-59093110D01*
X97186825Y-58945901D01*
X97061641Y-58683080D01*
X96887588Y-58449731D01*
X96671355Y-58254822D01*
X96554466Y-58185195D01*
X96736632Y-58063475D01*
X96943475Y-57856632D01*
X97105990Y-57613411D01*
X97217932Y-57343158D01*
X97275000Y-57056260D01*
X97275000Y-56763740D01*
X97217932Y-56476842D01*
X97105990Y-56206589D01*
X96943475Y-55963368D01*
X96736632Y-55756525D01*
X96562240Y-55640000D01*
X96736632Y-55523475D01*
X96943475Y-55316632D01*
X97105990Y-55073411D01*
X97217932Y-54803158D01*
X97275000Y-54516260D01*
X97275000Y-54223740D01*
X97217932Y-53936842D01*
X97105990Y-53666589D01*
X96943475Y-53423368D01*
X96736632Y-53216525D01*
X96562240Y-53100000D01*
X96736632Y-52983475D01*
X96943475Y-52776632D01*
X97105990Y-52533411D01*
X97217932Y-52263158D01*
X97275000Y-51976260D01*
X97275000Y-51683740D01*
X97217932Y-51396842D01*
X97105990Y-51126589D01*
X96943475Y-50883368D01*
X96736632Y-50676525D01*
X96493411Y-50514010D01*
X96223158Y-50402068D01*
X95936260Y-50345000D01*
X95643740Y-50345000D01*
X95423592Y-50388791D01*
X95178803Y-50144002D01*
X95155000Y-50114998D01*
X95039275Y-50020025D01*
X94907246Y-49949453D01*
X94763985Y-49905996D01*
X94652332Y-49894999D01*
X94652321Y-49894999D01*
X94614999Y-49891323D01*
X94577677Y-49894999D01*
X79222323Y-49894999D01*
X79185000Y-49891323D01*
X79147677Y-49894999D01*
X79147668Y-49894999D01*
X79036015Y-49905996D01*
X78892754Y-49949453D01*
X78760725Y-50020025D01*
X78760723Y-50020026D01*
X78760724Y-50020026D01*
X78673997Y-50091200D01*
X78673993Y-50091204D01*
X78645000Y-50114998D01*
X78621206Y-50143991D01*
X78366407Y-50398790D01*
X78146260Y-50355000D01*
X77853740Y-50355000D01*
X77566842Y-50412068D01*
X77296589Y-50524010D01*
X77053368Y-50686525D01*
X76846525Y-50893368D01*
X76684010Y-51136589D01*
X76572068Y-51406842D01*
X76515000Y-51693740D01*
X76515000Y-51986260D01*
X76572068Y-52273158D01*
X76684010Y-52543411D01*
X76846525Y-52786632D01*
X77053368Y-52993475D01*
X77227760Y-53110000D01*
X77053368Y-53226525D01*
X76846525Y-53433368D01*
X76684010Y-53676589D01*
X76572068Y-53946842D01*
X76515000Y-54233740D01*
X76515000Y-54526260D01*
X76572068Y-54813158D01*
X76684010Y-55083411D01*
X76846525Y-55326632D01*
X77053368Y-55533475D01*
X77227760Y-55650000D01*
X77053368Y-55766525D01*
X76846525Y-55973368D01*
X76684010Y-56216589D01*
X76572068Y-56486842D01*
X76515000Y-56773740D01*
X76515000Y-57066260D01*
X76572068Y-57353158D01*
X76684010Y-57623411D01*
X76846525Y-57866632D01*
X77053368Y-58073475D01*
X77235534Y-58195195D01*
X77118645Y-58264822D01*
X76902412Y-58459731D01*
X76728359Y-58693080D01*
X76603175Y-58955901D01*
X76558524Y-59103110D01*
X76679845Y-59333000D01*
X77873000Y-59333000D01*
X77873000Y-59313000D01*
X78127000Y-59313000D01*
X78127000Y-59333000D01*
X78147000Y-59333000D01*
X78147000Y-59587000D01*
X78127000Y-59587000D01*
X78127000Y-59607000D01*
X77873000Y-59607000D01*
X77873000Y-59587000D01*
X76679845Y-59587000D01*
X76558524Y-59816890D01*
X76603175Y-59964099D01*
X76728359Y-60226920D01*
X76902412Y-60460269D01*
X77118645Y-60655178D01*
X77235534Y-60724805D01*
X77053368Y-60846525D01*
X76846525Y-61053368D01*
X76684010Y-61296589D01*
X76572068Y-61566842D01*
X76515000Y-61853740D01*
X76515000Y-62146260D01*
X76572068Y-62433158D01*
X76684010Y-62703411D01*
X76846525Y-62946632D01*
X77053368Y-63153475D01*
X77235534Y-63275195D01*
X77118645Y-63344822D01*
X76902412Y-63539731D01*
X76728359Y-63773080D01*
X76603175Y-64035901D01*
X76558524Y-64183110D01*
X76679845Y-64413000D01*
X77873000Y-64413000D01*
X77873000Y-64393000D01*
X78127000Y-64393000D01*
X78127000Y-64413000D01*
X78147000Y-64413000D01*
X78147000Y-64667000D01*
X78127000Y-64667000D01*
X78127000Y-64687000D01*
X77873000Y-64687000D01*
X77873000Y-64667000D01*
X76679845Y-64667000D01*
X76558524Y-64896890D01*
X76603175Y-65044099D01*
X76728359Y-65306920D01*
X76902412Y-65540269D01*
X77118645Y-65735178D01*
X77235534Y-65804805D01*
X77053368Y-65926525D01*
X76846525Y-66133368D01*
X76684010Y-66376589D01*
X76572068Y-66646842D01*
X76515000Y-66933740D01*
X76515000Y-67226260D01*
X76572068Y-67513158D01*
X76684010Y-67783411D01*
X76846525Y-68026632D01*
X77053368Y-68233475D01*
X77227760Y-68350000D01*
X77053368Y-68466525D01*
X76846525Y-68673368D01*
X76684010Y-68916589D01*
X76572068Y-69186842D01*
X76515000Y-69473740D01*
X76515000Y-69766260D01*
X76572068Y-70053158D01*
X76684010Y-70323411D01*
X76846525Y-70566632D01*
X77053368Y-70773475D01*
X77227760Y-70890000D01*
X77053368Y-71006525D01*
X76846525Y-71213368D01*
X76684010Y-71456589D01*
X76572068Y-71726842D01*
X76515000Y-72013740D01*
X76515000Y-72306260D01*
X76572068Y-72593158D01*
X76684010Y-72863411D01*
X76846525Y-73106632D01*
X77053368Y-73313475D01*
X77227760Y-73430000D01*
X77053368Y-73546525D01*
X76846525Y-73753368D01*
X76684010Y-73996589D01*
X76572068Y-74266842D01*
X76515000Y-74553740D01*
X76515000Y-74846260D01*
X76572068Y-75133158D01*
X76684010Y-75403411D01*
X76846525Y-75646632D01*
X77053368Y-75853475D01*
X77235534Y-75975195D01*
X77118645Y-76044822D01*
X76902412Y-76239731D01*
X76728359Y-76473080D01*
X76603175Y-76735901D01*
X76558524Y-76883110D01*
X76679845Y-77113000D01*
X77873000Y-77113000D01*
X77873000Y-77093000D01*
X78127000Y-77093000D01*
X78127000Y-77113000D01*
X78147000Y-77113000D01*
X78147000Y-77367000D01*
X78127000Y-77367000D01*
X78127000Y-77387000D01*
X77873000Y-77387000D01*
X77873000Y-77367000D01*
X76679845Y-77367000D01*
X76558524Y-77596890D01*
X76603175Y-77744099D01*
X76728359Y-78006920D01*
X76902412Y-78240269D01*
X77118645Y-78435178D01*
X77235534Y-78504805D01*
X77053368Y-78626525D01*
X76846525Y-78833368D01*
X76684010Y-79076589D01*
X76572068Y-79346842D01*
X76515000Y-79633740D01*
X76515000Y-79926260D01*
X76572068Y-80213158D01*
X76684010Y-80483411D01*
X76846525Y-80726632D01*
X77053368Y-80933475D01*
X77227760Y-81050000D01*
X77053368Y-81166525D01*
X76846525Y-81373368D01*
X76684010Y-81616589D01*
X76572068Y-81886842D01*
X76515000Y-82173740D01*
X76515000Y-82466260D01*
X76572068Y-82753158D01*
X76684010Y-83023411D01*
X76846525Y-83266632D01*
X77053368Y-83473475D01*
X77235534Y-83595195D01*
X77118645Y-83664822D01*
X76902412Y-83859731D01*
X76728359Y-84093080D01*
X76603175Y-84355901D01*
X76558524Y-84503110D01*
X76679845Y-84733000D01*
X77873000Y-84733000D01*
X77873000Y-84713000D01*
X78127000Y-84713000D01*
X78127000Y-84733000D01*
X78147000Y-84733000D01*
X78147000Y-84987000D01*
X78127000Y-84987000D01*
X78127000Y-85007000D01*
X77873000Y-85007000D01*
X77873000Y-84987000D01*
X76679845Y-84987000D01*
X76558524Y-85216890D01*
X76603175Y-85364099D01*
X76728359Y-85626920D01*
X76902412Y-85860269D01*
X77118645Y-86055178D01*
X77235534Y-86124805D01*
X77053368Y-86246525D01*
X76846525Y-86453368D01*
X76684010Y-86696589D01*
X76572068Y-86966842D01*
X76515000Y-87253740D01*
X76515000Y-87546260D01*
X76572068Y-87833158D01*
X76684010Y-88103411D01*
X76846525Y-88346632D01*
X77053368Y-88553475D01*
X77227760Y-88670000D01*
X77053368Y-88786525D01*
X76846525Y-88993368D01*
X76684010Y-89236589D01*
X76572068Y-89506842D01*
X76515000Y-89793740D01*
X76515000Y-90086260D01*
X76572068Y-90373158D01*
X76684010Y-90643411D01*
X76846525Y-90886632D01*
X77053368Y-91093475D01*
X77227760Y-91210000D01*
X77053368Y-91326525D01*
X76846525Y-91533368D01*
X76684010Y-91776589D01*
X76572068Y-92046842D01*
X76515000Y-92333740D01*
X76515000Y-92626260D01*
X76572068Y-92913158D01*
X76684010Y-93183411D01*
X76846525Y-93426632D01*
X77053368Y-93633475D01*
X77235534Y-93755195D01*
X77118645Y-93824822D01*
X76902412Y-94019731D01*
X76728359Y-94253080D01*
X76603175Y-94515901D01*
X76558524Y-94663110D01*
X76679845Y-94893000D01*
X77873000Y-94893000D01*
X77873000Y-94873000D01*
X78127000Y-94873000D01*
X78127000Y-94893000D01*
X78147000Y-94893000D01*
X78147000Y-95147000D01*
X78127000Y-95147000D01*
X78127000Y-95167000D01*
X77873000Y-95167000D01*
X77873000Y-95147000D01*
X76679845Y-95147000D01*
X76558524Y-95376890D01*
X76603175Y-95524099D01*
X76728359Y-95786920D01*
X76902412Y-96020269D01*
X77118645Y-96215178D01*
X77235534Y-96284805D01*
X77053368Y-96406525D01*
X76846525Y-96613368D01*
X76684010Y-96856589D01*
X76572068Y-97126842D01*
X76515000Y-97413740D01*
X76515000Y-97706260D01*
X76572068Y-97993158D01*
X76684010Y-98263411D01*
X76846525Y-98506632D01*
X77053368Y-98713475D01*
X77227760Y-98830000D01*
X77053368Y-98946525D01*
X76846525Y-99153368D01*
X76684010Y-99396589D01*
X76572068Y-99666842D01*
X76515000Y-99953740D01*
X76515000Y-100246260D01*
X76558790Y-100466408D01*
X74888998Y-102136201D01*
X74860000Y-102159999D01*
X74836202Y-102188997D01*
X74836201Y-102188998D01*
X74765026Y-102275724D01*
X74694454Y-102407754D01*
X74650998Y-102551015D01*
X74636324Y-102700000D01*
X74640001Y-102737332D01*
X74640000Y-104472868D01*
X74464523Y-104590118D01*
X74260118Y-104794523D01*
X74099518Y-105034878D01*
X73988895Y-105301946D01*
X73932500Y-105585464D01*
X73932500Y-105874536D01*
X73988895Y-106158054D01*
X74099518Y-106425122D01*
X74260118Y-106665477D01*
X74464523Y-106869882D01*
X74704878Y-107030482D01*
X74971946Y-107141105D01*
X75255464Y-107197500D01*
X75544536Y-107197500D01*
X75828054Y-107141105D01*
X76095122Y-107030482D01*
X76335477Y-106869882D01*
X76539882Y-106665477D01*
X76670000Y-106470742D01*
X76800118Y-106665477D01*
X77004523Y-106869882D01*
X77199258Y-107000000D01*
X77004523Y-107130118D01*
X76800118Y-107334523D01*
X76639518Y-107574878D01*
X76528895Y-107841946D01*
X76472500Y-108125464D01*
X76472500Y-108414536D01*
X76528895Y-108698054D01*
X76639518Y-108965122D01*
X76800118Y-109205477D01*
X77004523Y-109409882D01*
X77244878Y-109570482D01*
X77511946Y-109681105D01*
X77795464Y-109737500D01*
X78084536Y-109737500D01*
X78368054Y-109681105D01*
X78635122Y-109570482D01*
X78875477Y-109409882D01*
X79079882Y-109205477D01*
X79240482Y-108965122D01*
X79351105Y-108698054D01*
X79407500Y-108414536D01*
X79407500Y-108125464D01*
X79351105Y-107841946D01*
X79240482Y-107574878D01*
X79079882Y-107334523D01*
X78875477Y-107130118D01*
X78680742Y-107000000D01*
X78875477Y-106869882D01*
X79079882Y-106665477D01*
X79210000Y-106470742D01*
X79340118Y-106665477D01*
X79544523Y-106869882D01*
X79784878Y-107030482D01*
X80051946Y-107141105D01*
X80335464Y-107197500D01*
X80624536Y-107197500D01*
X80908054Y-107141105D01*
X81175122Y-107030482D01*
X81415477Y-106869882D01*
X81619882Y-106665477D01*
X81750000Y-106470742D01*
X81880118Y-106665477D01*
X82084523Y-106869882D01*
X82279258Y-107000000D01*
X82084523Y-107130118D01*
X81880118Y-107334523D01*
X81719518Y-107574878D01*
X81608895Y-107841946D01*
X81552500Y-108125464D01*
X81552500Y-108414536D01*
X81608895Y-108698054D01*
X81719518Y-108965122D01*
X81880118Y-109205477D01*
X82084523Y-109409882D01*
X82324878Y-109570482D01*
X82591946Y-109681105D01*
X82875464Y-109737500D01*
X83164536Y-109737500D01*
X83448054Y-109681105D01*
X83715122Y-109570482D01*
X83955477Y-109409882D01*
X84159882Y-109205477D01*
X84290000Y-109010742D01*
X84420118Y-109205477D01*
X84624523Y-109409882D01*
X84864878Y-109570482D01*
X85131946Y-109681105D01*
X85415464Y-109737500D01*
X85704536Y-109737500D01*
X85988054Y-109681105D01*
X86255122Y-109570482D01*
X86495477Y-109409882D01*
X86699882Y-109205477D01*
X86830000Y-109010742D01*
X86960118Y-109205477D01*
X87164523Y-109409882D01*
X87404878Y-109570482D01*
X87671946Y-109681105D01*
X87955464Y-109737500D01*
X88097699Y-109737500D01*
X86431502Y-111403697D01*
X86402498Y-111427500D01*
X86371935Y-111464742D01*
X86307525Y-111543225D01*
X86255535Y-111640491D01*
X86236953Y-111675255D01*
X86193496Y-111818516D01*
X86182499Y-111930169D01*
X86182499Y-111930179D01*
X86178823Y-111967501D01*
X86182499Y-112004823D01*
X86182500Y-119639437D01*
X85988054Y-119558895D01*
X85704536Y-119502500D01*
X85415464Y-119502500D01*
X85131946Y-119558895D01*
X84864878Y-119669518D01*
X84624523Y-119830118D01*
X84420118Y-120034523D01*
X84290000Y-120229258D01*
X84159882Y-120034523D01*
X83955477Y-119830118D01*
X83715122Y-119669518D01*
X83448054Y-119558895D01*
X83164536Y-119502500D01*
X82875464Y-119502500D01*
X82591946Y-119558895D01*
X82324878Y-119669518D01*
X82084523Y-119830118D01*
X81880118Y-120034523D01*
X81750000Y-120229258D01*
X81619882Y-120034523D01*
X81415477Y-119830118D01*
X81175122Y-119669518D01*
X80908054Y-119558895D01*
X80624536Y-119502500D01*
X80335464Y-119502500D01*
X80051946Y-119558895D01*
X79784878Y-119669518D01*
X79544523Y-119830118D01*
X79340118Y-120034523D01*
X79210000Y-120229258D01*
X79079882Y-120034523D01*
X78875477Y-119830118D01*
X78635122Y-119669518D01*
X78368054Y-119558895D01*
X78084536Y-119502500D01*
X77795464Y-119502500D01*
X77511946Y-119558895D01*
X77244878Y-119669518D01*
X77004523Y-119830118D01*
X76800118Y-120034523D01*
X76672170Y-120226011D01*
X76663193Y-120209217D01*
X76415906Y-120133699D01*
X75579605Y-120970000D01*
X76415906Y-121806301D01*
X76663193Y-121730783D01*
X76671591Y-121713123D01*
X76800118Y-121905477D01*
X77004523Y-122109882D01*
X77244878Y-122270482D01*
X77511946Y-122381105D01*
X77795464Y-122437500D01*
X78084536Y-122437500D01*
X78368054Y-122381105D01*
X78635122Y-122270482D01*
X78875477Y-122109882D01*
X79079882Y-121905477D01*
X79210000Y-121710742D01*
X79340118Y-121905477D01*
X79544523Y-122109882D01*
X79784878Y-122270482D01*
X80051946Y-122381105D01*
X80335464Y-122437500D01*
X80624536Y-122437500D01*
X80908054Y-122381105D01*
X81175122Y-122270482D01*
X81415477Y-122109882D01*
X81619882Y-121905477D01*
X81750000Y-121710742D01*
X81880118Y-121905477D01*
X82084523Y-122109882D01*
X82324878Y-122270482D01*
X82591946Y-122381105D01*
X82875464Y-122437500D01*
X83164536Y-122437500D01*
X83448054Y-122381105D01*
X83715122Y-122270482D01*
X83955477Y-122109882D01*
X84159882Y-121905477D01*
X84290000Y-121710742D01*
X84420118Y-121905477D01*
X84624523Y-122109882D01*
X84864878Y-122270482D01*
X85131946Y-122381105D01*
X85415464Y-122437500D01*
X85704536Y-122437500D01*
X85988054Y-122381105D01*
X86182500Y-122300563D01*
X86182500Y-124172698D01*
X85256408Y-125098791D01*
X85036260Y-125055000D01*
X84743740Y-125055000D01*
X84456842Y-125112068D01*
X84186589Y-125224010D01*
X83943368Y-125386525D01*
X83736525Y-125593368D01*
X83614805Y-125775534D01*
X83545178Y-125658645D01*
X83350269Y-125442412D01*
X83116920Y-125268359D01*
X82854099Y-125143175D01*
X82706890Y-125098524D01*
X82477000Y-125219845D01*
X82477000Y-126413000D01*
X82497000Y-126413000D01*
X82497000Y-126667000D01*
X82477000Y-126667000D01*
X82477000Y-127860155D01*
X82706890Y-127981476D01*
X82854099Y-127936825D01*
X83116920Y-127811641D01*
X83350269Y-127637588D01*
X83545178Y-127421355D01*
X83614805Y-127304466D01*
X83736525Y-127486632D01*
X83943368Y-127693475D01*
X84186589Y-127855990D01*
X84456842Y-127967932D01*
X84743740Y-128025000D01*
X85036260Y-128025000D01*
X85323158Y-127967932D01*
X85593411Y-127855990D01*
X85836632Y-127693475D01*
X86043475Y-127486632D01*
X86160000Y-127312240D01*
X86276525Y-127486632D01*
X86483368Y-127693475D01*
X86726589Y-127855990D01*
X86996842Y-127967932D01*
X87283740Y-128025000D01*
X87576260Y-128025000D01*
X87863158Y-127967932D01*
X88133411Y-127855990D01*
X88376632Y-127693475D01*
X88583475Y-127486632D01*
X88745990Y-127243411D01*
X88835675Y-127026891D01*
X94118519Y-127026891D01*
X94215843Y-127301252D01*
X94364822Y-127551355D01*
X94559731Y-127767588D01*
X94793080Y-127941641D01*
X95055901Y-128066825D01*
X95203110Y-128111476D01*
X95433000Y-127990155D01*
X95433000Y-126797000D01*
X94239186Y-126797000D01*
X94118519Y-127026891D01*
X88835675Y-127026891D01*
X88857932Y-126973158D01*
X88915000Y-126686260D01*
X88915000Y-126393740D01*
X88887402Y-126254999D01*
X94139132Y-126254999D01*
X94118519Y-126313109D01*
X94239186Y-126543000D01*
X95433000Y-126543000D01*
X95433000Y-126523000D01*
X95687000Y-126523000D01*
X95687000Y-126543000D01*
X95707000Y-126543000D01*
X95707000Y-126797000D01*
X95687000Y-126797000D01*
X95687000Y-127990155D01*
X95916890Y-128111476D01*
X96064099Y-128066825D01*
X96326920Y-127941641D01*
X96560269Y-127767588D01*
X96755178Y-127551355D01*
X96824805Y-127434466D01*
X96946525Y-127616632D01*
X97153368Y-127823475D01*
X97396589Y-127985990D01*
X97666842Y-128097932D01*
X97953740Y-128155000D01*
X98246260Y-128155000D01*
X98533158Y-128097932D01*
X98803411Y-127985990D01*
X99046632Y-127823475D01*
X99253475Y-127616632D01*
X99370000Y-127442240D01*
X99486525Y-127616632D01*
X99693368Y-127823475D01*
X99936589Y-127985990D01*
X100206842Y-128097932D01*
X100493740Y-128155000D01*
X100786260Y-128155000D01*
X101073158Y-128097932D01*
X101343411Y-127985990D01*
X101586632Y-127823475D01*
X101718487Y-127691620D01*
X101740498Y-127764180D01*
X101799463Y-127874494D01*
X101878815Y-127971185D01*
X101975506Y-128050537D01*
X102085820Y-128109502D01*
X102205518Y-128145812D01*
X102330000Y-128158072D01*
X104030000Y-128158072D01*
X104154482Y-128145812D01*
X104274180Y-128109502D01*
X104384494Y-128050537D01*
X104481185Y-127971185D01*
X104560537Y-127874494D01*
X104619502Y-127764180D01*
X104655812Y-127644482D01*
X104668072Y-127520000D01*
X104668072Y-126254999D01*
X111441826Y-126254999D01*
X111412068Y-126326842D01*
X111355000Y-126613740D01*
X111355000Y-126906260D01*
X111412068Y-127193158D01*
X111524010Y-127463411D01*
X111686525Y-127706632D01*
X111893368Y-127913475D01*
X112136589Y-128075990D01*
X112406842Y-128187932D01*
X112693740Y-128245000D01*
X112986260Y-128245000D01*
X113273158Y-128187932D01*
X113543411Y-128075990D01*
X113786632Y-127913475D01*
X113993475Y-127706632D01*
X114110000Y-127532240D01*
X114226525Y-127706632D01*
X114433368Y-127913475D01*
X114676589Y-128075990D01*
X114946842Y-128187932D01*
X115233740Y-128245000D01*
X115526260Y-128245000D01*
X115746408Y-128201210D01*
X116081202Y-128536004D01*
X116105000Y-128565002D01*
X116133998Y-128588800D01*
X116220725Y-128659975D01*
X116352754Y-128730547D01*
X116496015Y-128774004D01*
X116645001Y-128788678D01*
X116682334Y-128785001D01*
X135207677Y-128785001D01*
X135244999Y-128788677D01*
X135282321Y-128785001D01*
X135282332Y-128785001D01*
X135393985Y-128774004D01*
X135537246Y-128730547D01*
X135669275Y-128659975D01*
X135785000Y-128565002D01*
X135808803Y-128535998D01*
X136053592Y-128291209D01*
X136273740Y-128335000D01*
X136566260Y-128335000D01*
X136853158Y-128277932D01*
X137123411Y-128165990D01*
X137366632Y-128003475D01*
X137573475Y-127796632D01*
X137653742Y-127676503D01*
X137657696Y-128810103D01*
X73769926Y-128819990D01*
X73766593Y-125690000D01*
X78321928Y-125690000D01*
X78321928Y-127390000D01*
X78334188Y-127514482D01*
X78370498Y-127634180D01*
X78429463Y-127744494D01*
X78508815Y-127841185D01*
X78605506Y-127920537D01*
X78715820Y-127979502D01*
X78835518Y-128015812D01*
X78960000Y-128028072D01*
X80660000Y-128028072D01*
X80784482Y-128015812D01*
X80904180Y-127979502D01*
X81014494Y-127920537D01*
X81111185Y-127841185D01*
X81190537Y-127744494D01*
X81249502Y-127634180D01*
X81273966Y-127553534D01*
X81349731Y-127637588D01*
X81583080Y-127811641D01*
X81845901Y-127936825D01*
X81993110Y-127981476D01*
X82223000Y-127860155D01*
X82223000Y-126667000D01*
X82203000Y-126667000D01*
X82203000Y-126413000D01*
X82223000Y-126413000D01*
X82223000Y-125219845D01*
X81993110Y-125098524D01*
X81845901Y-125143175D01*
X81583080Y-125268359D01*
X81349731Y-125442412D01*
X81273966Y-125526466D01*
X81249502Y-125445820D01*
X81190537Y-125335506D01*
X81111185Y-125238815D01*
X81014494Y-125159463D01*
X80904180Y-125100498D01*
X80784482Y-125064188D01*
X80660000Y-125051928D01*
X78960000Y-125051928D01*
X78835518Y-125064188D01*
X78715820Y-125100498D01*
X78605506Y-125159463D01*
X78508815Y-125238815D01*
X78429463Y-125335506D01*
X78370498Y-125445820D01*
X78334188Y-125565518D01*
X78321928Y-125690000D01*
X73766593Y-125690000D01*
X73762648Y-121985906D01*
X74563699Y-121985906D01*
X74639217Y-122233193D01*
X74900273Y-122357343D01*
X75180532Y-122428177D01*
X75469226Y-122442974D01*
X75755259Y-122401166D01*
X76027639Y-122304359D01*
X76160783Y-122233193D01*
X76236301Y-121985906D01*
X75400000Y-121149605D01*
X74563699Y-121985906D01*
X73762648Y-121985906D01*
X73761639Y-121039226D01*
X73927026Y-121039226D01*
X73968834Y-121325259D01*
X74065641Y-121597639D01*
X74136807Y-121730783D01*
X74384094Y-121806301D01*
X75220395Y-120970000D01*
X74384094Y-120133699D01*
X74136807Y-120209217D01*
X74012657Y-120470273D01*
X73941823Y-120750532D01*
X73927026Y-121039226D01*
X73761639Y-121039226D01*
X73760484Y-119954094D01*
X74563699Y-119954094D01*
X75400000Y-120790395D01*
X76236301Y-119954094D01*
X76160783Y-119706807D01*
X75899727Y-119582657D01*
X75619468Y-119511823D01*
X75330774Y-119497026D01*
X75044741Y-119538834D01*
X74772361Y-119635641D01*
X74639217Y-119706807D01*
X74563699Y-119954094D01*
X73760484Y-119954094D01*
X73680034Y-44421929D01*
X73687485Y-44345941D01*
X73700281Y-44303559D01*
X73721064Y-44264472D01*
X73749045Y-44230164D01*
X73783155Y-44201946D01*
X73822097Y-44180890D01*
X73864389Y-44167799D01*
X73938588Y-44160000D01*
X137077721Y-44160000D01*
X137218156Y-44173770D01*
%TA.AperFunction,Conductor*%
D18*
G36*
X137218156Y-44173770D02*
G01*
X137322193Y-44205181D01*
X137418150Y-44256202D01*
X137502363Y-44324884D01*
X137571637Y-44408621D01*
X137623325Y-44504216D01*
X137655462Y-44608033D01*
X137669972Y-44746093D01*
X137639967Y-72901716D01*
X137640617Y-72908385D01*
X137642993Y-73032150D01*
X137648446Y-73078572D01*
X137651397Y-73125225D01*
X137652937Y-73134310D01*
X137696773Y-73382420D01*
X137712884Y-73440047D01*
X137728179Y-73497857D01*
X137731454Y-73506471D01*
X137822646Y-73741342D01*
X137849628Y-73794712D01*
X137875877Y-73848483D01*
X137880763Y-73856296D01*
X138015838Y-74068981D01*
X138052677Y-74116100D01*
X138072418Y-74142090D01*
X138073006Y-74201262D01*
X138075693Y-74226013D01*
X138083156Y-74249764D01*
X138095109Y-74271603D01*
X138111094Y-74290690D01*
X138130495Y-74306292D01*
X138152567Y-74317810D01*
X138176462Y-74324800D01*
X138198540Y-74326992D01*
X138244851Y-74327524D01*
X138268990Y-74352855D01*
X138314253Y-74391897D01*
X138359030Y-74431626D01*
X138366525Y-74436987D01*
X138572456Y-74582152D01*
X138624459Y-74611670D01*
X138676084Y-74641935D01*
X138684478Y-74645738D01*
X138914683Y-74748139D01*
X138971442Y-74766998D01*
X139027949Y-74786655D01*
X139036922Y-74788755D01*
X139260146Y-74839390D01*
X139300281Y-74851496D01*
X139397260Y-74860893D01*
X142141846Y-74856556D01*
X142051717Y-74966378D01*
X141946324Y-75163554D01*
X141881423Y-75377502D01*
X141859509Y-75600000D01*
X141871060Y-75717277D01*
X141846324Y-75763554D01*
X141781423Y-75977502D01*
X141759509Y-76200000D01*
X141780177Y-76409849D01*
X141739841Y-76458999D01*
X141566378Y-76551717D01*
X141393552Y-76693552D01*
X141251717Y-76866378D01*
X141146324Y-77063554D01*
X141081423Y-77277502D01*
X141067914Y-77414666D01*
X140963553Y-77446324D01*
X140766377Y-77551716D01*
X140593551Y-77693551D01*
X140451716Y-77866377D01*
X140346324Y-78063553D01*
X140281423Y-78277501D01*
X140259509Y-78500000D01*
X140281423Y-78722499D01*
X140346324Y-78936447D01*
X140451716Y-79133623D01*
X140593551Y-79306449D01*
X140766377Y-79448284D01*
X140963553Y-79553676D01*
X140974986Y-79557144D01*
X140981423Y-79622498D01*
X141046324Y-79836446D01*
X141151717Y-80033622D01*
X141293552Y-80206448D01*
X141466378Y-80348283D01*
X141663554Y-80453676D01*
X141669707Y-80455542D01*
X141727421Y-80525868D01*
X141681423Y-80677502D01*
X141659509Y-80900000D01*
X141681423Y-81122498D01*
X141746324Y-81336446D01*
X141851717Y-81533622D01*
X141883125Y-81571892D01*
X141881423Y-81577502D01*
X141859509Y-81800000D01*
X141881423Y-82022498D01*
X141932372Y-82190452D01*
X139864483Y-82200160D01*
X139839932Y-82202694D01*
X139592657Y-82222396D01*
X139539671Y-82231887D01*
X139486409Y-82239667D01*
X139477480Y-82241945D01*
X139173563Y-82321735D01*
X139117500Y-82342485D01*
X139061079Y-82362476D01*
X139052763Y-82366445D01*
X138770130Y-82503747D01*
X138719123Y-82535017D01*
X138667700Y-82565562D01*
X138660312Y-82571071D01*
X138657762Y-82573000D01*
X138300000Y-82573000D01*
X138275224Y-82575440D01*
X138251399Y-82582667D01*
X138229443Y-82594403D01*
X138210197Y-82610197D01*
X138194403Y-82629443D01*
X138182667Y-82651399D01*
X138175440Y-82675224D01*
X138173001Y-82699473D01*
X138171717Y-83008998D01*
X138106103Y-83082668D01*
X138070847Y-83131035D01*
X138034958Y-83178852D01*
X138030227Y-83186760D01*
X137870800Y-83457527D01*
X137845644Y-83511747D01*
X137819692Y-83565696D01*
X137816588Y-83574373D01*
X137712789Y-83870950D01*
X137698639Y-83929041D01*
X137683665Y-83986985D01*
X137682305Y-83996100D01*
X137645314Y-84256349D01*
X137641326Y-84269404D01*
X137631586Y-84366349D01*
X137589939Y-105531119D01*
X137599298Y-105628101D01*
X137599777Y-105629691D01*
X137618722Y-105816254D01*
X137630288Y-105873622D01*
X137640815Y-105931155D01*
X137643412Y-105939997D01*
X137718868Y-106190404D01*
X137741629Y-106245710D01*
X137763623Y-106301349D01*
X137767888Y-106309518D01*
X137890544Y-106540500D01*
X137923604Y-106590318D01*
X137955999Y-106640644D01*
X137961770Y-106647829D01*
X138073063Y-106784438D01*
X138073001Y-106799473D01*
X138075339Y-106824259D01*
X138082467Y-106848114D01*
X138094112Y-106870119D01*
X138109826Y-106889429D01*
X138129005Y-106905303D01*
X138150913Y-106917130D01*
X138174707Y-106924456D01*
X138198413Y-106926990D01*
X138201857Y-106927033D01*
X138210611Y-106936108D01*
X138217668Y-106942035D01*
X138419090Y-107108849D01*
X138468671Y-107142331D01*
X138517767Y-107176493D01*
X138525841Y-107180937D01*
X138755827Y-107305449D01*
X138810972Y-107328665D01*
X138865761Y-107352637D01*
X138874543Y-107355428D01*
X139124335Y-107432899D01*
X139182920Y-107444958D01*
X139241343Y-107457836D01*
X139250499Y-107458868D01*
X139250501Y-107458868D01*
X139509663Y-107486248D01*
X139540551Y-107489619D01*
X142186215Y-107517506D01*
X142093552Y-107593552D01*
X141951717Y-107766378D01*
X141846324Y-107963554D01*
X141781423Y-108177502D01*
X141759509Y-108400000D01*
X141772214Y-108528996D01*
X141693552Y-108593552D01*
X141551717Y-108766378D01*
X141446324Y-108963554D01*
X141381423Y-109177502D01*
X141359509Y-109400000D01*
X141369047Y-109496838D01*
X141266377Y-109551716D01*
X141093551Y-109693551D01*
X140951716Y-109866377D01*
X140846324Y-110063553D01*
X140781423Y-110277501D01*
X140759509Y-110500000D01*
X140781423Y-110722499D01*
X140846324Y-110936447D01*
X140951716Y-111133623D01*
X141093551Y-111306449D01*
X141266377Y-111448284D01*
X141359690Y-111498161D01*
X141359509Y-111500000D01*
X141381423Y-111722498D01*
X141446324Y-111936446D01*
X141551717Y-112133622D01*
X141627421Y-112225868D01*
X141581423Y-112377502D01*
X141559509Y-112600000D01*
X141581423Y-112822498D01*
X141646324Y-113036446D01*
X141751717Y-113233622D01*
X141876843Y-113386089D01*
X139939690Y-113379900D01*
X139918881Y-113381882D01*
X139701137Y-113394994D01*
X139654252Y-113402459D01*
X139607060Y-113407495D01*
X139598049Y-113409425D01*
X139234107Y-113490055D01*
X139177247Y-113508631D01*
X139120131Y-113526412D01*
X139111667Y-113530056D01*
X138770317Y-113679840D01*
X138718149Y-113709106D01*
X138665571Y-113737643D01*
X138657976Y-113742861D01*
X138471370Y-113873000D01*
X138200000Y-113873000D01*
X138175224Y-113875440D01*
X138151399Y-113882667D01*
X138129443Y-113894403D01*
X138110197Y-113910197D01*
X138094403Y-113929443D01*
X138082667Y-113951399D01*
X138075440Y-113975224D01*
X138073003Y-114000841D01*
X138074497Y-114226486D01*
X137995747Y-114308296D01*
X137958704Y-114355187D01*
X137920931Y-114401653D01*
X137915898Y-114409372D01*
X137734611Y-114691668D01*
X137717111Y-114713144D01*
X137656226Y-114828014D01*
X137618920Y-114952555D01*
X137609708Y-115049551D01*
X137647948Y-126014824D01*
X137573475Y-125903368D01*
X137366632Y-125696525D01*
X137123411Y-125534010D01*
X136853158Y-125422068D01*
X136566260Y-125365000D01*
X136273740Y-125365000D01*
X135986842Y-125422068D01*
X135716589Y-125534010D01*
X135473368Y-125696525D01*
X135266525Y-125903368D01*
X135150000Y-126077760D01*
X135033475Y-125903368D01*
X134826632Y-125696525D01*
X134583411Y-125534010D01*
X134313158Y-125422068D01*
X134026260Y-125365000D01*
X133733740Y-125365000D01*
X133446842Y-125422068D01*
X133176589Y-125534010D01*
X132933368Y-125696525D01*
X132726525Y-125903368D01*
X132604805Y-126085534D01*
X132535178Y-125968645D01*
X132340269Y-125752412D01*
X132106920Y-125578359D01*
X131844099Y-125453175D01*
X131696890Y-125408524D01*
X131467000Y-125529845D01*
X131467000Y-126723000D01*
X131487000Y-126723000D01*
X131487000Y-126977000D01*
X131467000Y-126977000D01*
X131467000Y-126997000D01*
X131213000Y-126997000D01*
X131213000Y-126977000D01*
X131193000Y-126977000D01*
X131193000Y-126723000D01*
X131213000Y-126723000D01*
X131213000Y-125529845D01*
X130983110Y-125408524D01*
X130835901Y-125453175D01*
X130573080Y-125578359D01*
X130339731Y-125752412D01*
X130263966Y-125836466D01*
X130239502Y-125755820D01*
X130180537Y-125645506D01*
X130101185Y-125548815D01*
X130004494Y-125469463D01*
X129894180Y-125410498D01*
X129774482Y-125374188D01*
X129650000Y-125361928D01*
X127950000Y-125361928D01*
X127825518Y-125374188D01*
X127705820Y-125410498D01*
X127595506Y-125469463D01*
X127498815Y-125548815D01*
X127419463Y-125645506D01*
X127360498Y-125755820D01*
X127324188Y-125875518D01*
X127311928Y-126000000D01*
X127311928Y-126090000D01*
X121948072Y-126090000D01*
X121948072Y-125910000D01*
X121935812Y-125785518D01*
X121899502Y-125665820D01*
X121840537Y-125555506D01*
X121761185Y-125458815D01*
X121664494Y-125379463D01*
X121554180Y-125320498D01*
X121434482Y-125284188D01*
X121310000Y-125271928D01*
X120046731Y-125271928D01*
X111424801Y-116650000D01*
X113843676Y-116650000D01*
X113880998Y-116653676D01*
X113918320Y-116650000D01*
X113918331Y-116650000D01*
X114029984Y-116639003D01*
X114173245Y-116595546D01*
X114305274Y-116524974D01*
X114420999Y-116430001D01*
X114444802Y-116400997D01*
X116118909Y-114726890D01*
X120778524Y-114726890D01*
X120823175Y-114874099D01*
X120948359Y-115136920D01*
X121122412Y-115370269D01*
X121338645Y-115565178D01*
X121588748Y-115714157D01*
X121863109Y-115811481D01*
X122093000Y-115690814D01*
X122093000Y-114497000D01*
X122347000Y-114497000D01*
X122347000Y-115690814D01*
X122576891Y-115811481D01*
X122851252Y-115714157D01*
X123101355Y-115565178D01*
X123317588Y-115370269D01*
X123491641Y-115136920D01*
X123616825Y-114874099D01*
X123661476Y-114726890D01*
X123540155Y-114497000D01*
X122347000Y-114497000D01*
X122093000Y-114497000D01*
X120899845Y-114497000D01*
X120778524Y-114726890D01*
X116118909Y-114726890D01*
X120888891Y-109956909D01*
X120904010Y-109993411D01*
X121066525Y-110236632D01*
X121273368Y-110443475D01*
X121447760Y-110560000D01*
X121273368Y-110676525D01*
X121066525Y-110883368D01*
X120904010Y-111126589D01*
X120792068Y-111396842D01*
X120735000Y-111683740D01*
X120735000Y-111976260D01*
X120792068Y-112263158D01*
X120904010Y-112533411D01*
X121066525Y-112776632D01*
X121273368Y-112983475D01*
X121455534Y-113105195D01*
X121338645Y-113174822D01*
X121122412Y-113369731D01*
X120948359Y-113603080D01*
X120823175Y-113865901D01*
X120778524Y-114013110D01*
X120899845Y-114243000D01*
X122093000Y-114243000D01*
X122093000Y-114223000D01*
X122347000Y-114223000D01*
X122347000Y-114243000D01*
X123540155Y-114243000D01*
X123661476Y-114013110D01*
X123616825Y-113865901D01*
X123491641Y-113603080D01*
X123317588Y-113369731D01*
X123101355Y-113174822D01*
X122984466Y-113105195D01*
X123166632Y-112983475D01*
X123373475Y-112776632D01*
X123535990Y-112533411D01*
X123647932Y-112263158D01*
X123705000Y-111976260D01*
X123705000Y-111683740D01*
X123647932Y-111396842D01*
X123535990Y-111126589D01*
X123373475Y-110883368D01*
X123166632Y-110676525D01*
X122992240Y-110560000D01*
X123166632Y-110443475D01*
X123373475Y-110236632D01*
X123535990Y-109993411D01*
X123647932Y-109723158D01*
X123705000Y-109436260D01*
X123705000Y-109143740D01*
X123647932Y-108856842D01*
X123535990Y-108586589D01*
X123373475Y-108343368D01*
X123241620Y-108211513D01*
X123314180Y-108189502D01*
X123424494Y-108130537D01*
X123521185Y-108051185D01*
X123600537Y-107954494D01*
X123659502Y-107844180D01*
X123695812Y-107724482D01*
X123708072Y-107600000D01*
X123708072Y-107510000D01*
X124352678Y-107510000D01*
X124390000Y-107513676D01*
X124427322Y-107510000D01*
X124427333Y-107510000D01*
X124538986Y-107499003D01*
X124682247Y-107455546D01*
X124814276Y-107384974D01*
X124930001Y-107290001D01*
X124953804Y-107260997D01*
X126241004Y-105973798D01*
X126270001Y-105950001D01*
X126364974Y-105834276D01*
X126435546Y-105702247D01*
X126479003Y-105558986D01*
X126490000Y-105447333D01*
X126490000Y-105447324D01*
X126493676Y-105410001D01*
X126490000Y-105372678D01*
X126490000Y-92747322D01*
X126493676Y-92709999D01*
X126490000Y-92672676D01*
X126490000Y-92672667D01*
X126479003Y-92561014D01*
X126435546Y-92417753D01*
X126364974Y-92285723D01*
X126293799Y-92198997D01*
X126270001Y-92169999D01*
X126241003Y-92146201D01*
X124293804Y-90199003D01*
X124270001Y-90169999D01*
X124154276Y-90075026D01*
X124022247Y-90004454D01*
X123878986Y-89960997D01*
X123767333Y-89950000D01*
X123767322Y-89950000D01*
X123730000Y-89946324D01*
X123692678Y-89950000D01*
X123368072Y-89950000D01*
X123368072Y-89860000D01*
X123355812Y-89735518D01*
X123319502Y-89615820D01*
X123260537Y-89505506D01*
X123181185Y-89408815D01*
X123084494Y-89329463D01*
X122974180Y-89270498D01*
X122854482Y-89234188D01*
X122730000Y-89221928D01*
X121030000Y-89221928D01*
X120905518Y-89234188D01*
X120785820Y-89270498D01*
X120675506Y-89329463D01*
X120578815Y-89408815D01*
X120499463Y-89505506D01*
X120440498Y-89615820D01*
X120404188Y-89735518D01*
X120391928Y-89860000D01*
X120391928Y-91560000D01*
X120404188Y-91684482D01*
X120440498Y-91804180D01*
X120499463Y-91914494D01*
X120578815Y-92011185D01*
X120675506Y-92090537D01*
X120785820Y-92149502D01*
X120866466Y-92173966D01*
X120782412Y-92249731D01*
X120608359Y-92483080D01*
X120483175Y-92745901D01*
X120438524Y-92893110D01*
X120559845Y-93123000D01*
X121753000Y-93123000D01*
X121753000Y-93103000D01*
X122007000Y-93103000D01*
X122007000Y-93123000D01*
X123200155Y-93123000D01*
X123321476Y-92893110D01*
X123276825Y-92745901D01*
X123151641Y-92483080D01*
X122977588Y-92249731D01*
X122893534Y-92173966D01*
X122974180Y-92149502D01*
X123084494Y-92090537D01*
X123181185Y-92011185D01*
X123260537Y-91914494D01*
X123319502Y-91804180D01*
X123355812Y-91684482D01*
X123368072Y-91560000D01*
X123368072Y-91470000D01*
X123415199Y-91470000D01*
X124970001Y-93024803D01*
X124970000Y-105095198D01*
X124075199Y-105990000D01*
X123708072Y-105990000D01*
X123708072Y-105900000D01*
X123695812Y-105775518D01*
X123659502Y-105655820D01*
X123600537Y-105545506D01*
X123521185Y-105448815D01*
X123424494Y-105369463D01*
X123314180Y-105310498D01*
X123194482Y-105274188D01*
X123070000Y-105261928D01*
X121370000Y-105261928D01*
X121245518Y-105274188D01*
X121125820Y-105310498D01*
X121015506Y-105369463D01*
X120918815Y-105448815D01*
X120839463Y-105545506D01*
X120780498Y-105655820D01*
X120744188Y-105775518D01*
X120731928Y-105900000D01*
X120731928Y-107600000D01*
X120744188Y-107724482D01*
X120780498Y-107844180D01*
X120805410Y-107890786D01*
X113566197Y-115130000D01*
X109677132Y-115130000D01*
X109559882Y-114954523D01*
X109355477Y-114750118D01*
X109163989Y-114622170D01*
X109180783Y-114613193D01*
X109256301Y-114365906D01*
X108420000Y-113529605D01*
X107583699Y-114365906D01*
X107659217Y-114613193D01*
X107676877Y-114621591D01*
X107484523Y-114750118D01*
X107280118Y-114954523D01*
X107119518Y-115194878D01*
X107008895Y-115461946D01*
X106952500Y-115745464D01*
X106952500Y-116034536D01*
X107008895Y-116318054D01*
X107119518Y-116585122D01*
X107280118Y-116825477D01*
X107484523Y-117029882D01*
X107679258Y-117160000D01*
X107484523Y-117290118D01*
X107280118Y-117494523D01*
X107119518Y-117734878D01*
X107008895Y-118001946D01*
X106952500Y-118285464D01*
X106952500Y-118574536D01*
X107008895Y-118858054D01*
X107119518Y-119125122D01*
X107280118Y-119365477D01*
X107484523Y-119569882D01*
X107679258Y-119700000D01*
X107484523Y-119830118D01*
X107280118Y-120034523D01*
X107150000Y-120229258D01*
X107019882Y-120034523D01*
X106815477Y-119830118D01*
X106575122Y-119669518D01*
X106308054Y-119558895D01*
X106024536Y-119502500D01*
X105735464Y-119502500D01*
X105451946Y-119558895D01*
X105184878Y-119669518D01*
X104944523Y-119830118D01*
X104740118Y-120034523D01*
X104610000Y-120229258D01*
X104479882Y-120034523D01*
X104275477Y-119830118D01*
X104035122Y-119669518D01*
X103768054Y-119558895D01*
X103484536Y-119502500D01*
X103195464Y-119502500D01*
X102988474Y-119543673D01*
X102942499Y-119497698D01*
X102942499Y-113419226D01*
X106947026Y-113419226D01*
X106988834Y-113705259D01*
X107085641Y-113977639D01*
X107156807Y-114110783D01*
X107404094Y-114186301D01*
X108240395Y-113350000D01*
X108599605Y-113350000D01*
X109435906Y-114186301D01*
X109683193Y-114110783D01*
X109807343Y-113849727D01*
X109878177Y-113569468D01*
X109892974Y-113280774D01*
X109851166Y-112994741D01*
X109754359Y-112722361D01*
X109683193Y-112589217D01*
X109435906Y-112513699D01*
X108599605Y-113350000D01*
X108240395Y-113350000D01*
X107404094Y-112513699D01*
X107156807Y-112589217D01*
X107032657Y-112850273D01*
X106961823Y-113130532D01*
X106947026Y-113419226D01*
X102942499Y-113419226D01*
X102942499Y-107147182D01*
X103195464Y-107197500D01*
X103484536Y-107197500D01*
X103768054Y-107141105D01*
X104035122Y-107030482D01*
X104275477Y-106869882D01*
X104479882Y-106665477D01*
X104610000Y-106470742D01*
X104740118Y-106665477D01*
X104944523Y-106869882D01*
X105184878Y-107030482D01*
X105451946Y-107141105D01*
X105735464Y-107197500D01*
X106024536Y-107197500D01*
X106308054Y-107141105D01*
X106575122Y-107030482D01*
X106815477Y-106869882D01*
X107019882Y-106665477D01*
X107150000Y-106470742D01*
X107280118Y-106665477D01*
X107484523Y-106869882D01*
X107679258Y-107000000D01*
X107484523Y-107130118D01*
X107280118Y-107334523D01*
X107119518Y-107574878D01*
X107008895Y-107841946D01*
X106952500Y-108125464D01*
X106952500Y-108414536D01*
X107008895Y-108698054D01*
X107119518Y-108965122D01*
X107280118Y-109205477D01*
X107484523Y-109409882D01*
X107679258Y-109540000D01*
X107484523Y-109670118D01*
X107280118Y-109874523D01*
X107119518Y-110114878D01*
X107008895Y-110381946D01*
X106952500Y-110665464D01*
X106952500Y-110954536D01*
X107008895Y-111238054D01*
X107119518Y-111505122D01*
X107280118Y-111745477D01*
X107484523Y-111949882D01*
X107676011Y-112077830D01*
X107659217Y-112086807D01*
X107583699Y-112334094D01*
X108420000Y-113170395D01*
X109256301Y-112334094D01*
X109180783Y-112086807D01*
X109163123Y-112078409D01*
X109355477Y-111949882D01*
X109559882Y-111745477D01*
X109720482Y-111505122D01*
X109831105Y-111238054D01*
X109887500Y-110954536D01*
X109887500Y-110665464D01*
X109831105Y-110381946D01*
X109764696Y-110221620D01*
X111861220Y-110221620D01*
X111861220Y-110678380D01*
X111950329Y-111126363D01*
X112125123Y-111548354D01*
X112378886Y-111928136D01*
X112701864Y-112251114D01*
X113081646Y-112504877D01*
X113503637Y-112679671D01*
X113951620Y-112768780D01*
X114408380Y-112768780D01*
X114856363Y-112679671D01*
X115278354Y-112504877D01*
X115658136Y-112251114D01*
X115981114Y-111928136D01*
X116234877Y-111548354D01*
X116409671Y-111126363D01*
X116498780Y-110678380D01*
X116498780Y-110221620D01*
X116409671Y-109773637D01*
X116234877Y-109351646D01*
X115981114Y-108971864D01*
X115658136Y-108648886D01*
X115278354Y-108395123D01*
X114856363Y-108220329D01*
X114408380Y-108131220D01*
X113951620Y-108131220D01*
X113503637Y-108220329D01*
X113081646Y-108395123D01*
X112701864Y-108648886D01*
X112378886Y-108971864D01*
X112125123Y-109351646D01*
X111950329Y-109773637D01*
X111861220Y-110221620D01*
X109764696Y-110221620D01*
X109720482Y-110114878D01*
X109559882Y-109874523D01*
X109355477Y-109670118D01*
X109160742Y-109540000D01*
X109355477Y-109409882D01*
X109559882Y-109205477D01*
X109720482Y-108965122D01*
X109831105Y-108698054D01*
X109887500Y-108414536D01*
X109887500Y-108125464D01*
X109831105Y-107841946D01*
X109720482Y-107574878D01*
X109559882Y-107334523D01*
X109355477Y-107130118D01*
X109160742Y-107000000D01*
X109355477Y-106869882D01*
X109559882Y-106665477D01*
X109720482Y-106425122D01*
X109831105Y-106158054D01*
X109887500Y-105874536D01*
X109887500Y-105585464D01*
X109831105Y-105301946D01*
X109720482Y-105034878D01*
X109559882Y-104794523D01*
X109355477Y-104590118D01*
X109115122Y-104429518D01*
X108848054Y-104318895D01*
X108564536Y-104262500D01*
X108275464Y-104262500D01*
X107991946Y-104318895D01*
X107724878Y-104429518D01*
X107484523Y-104590118D01*
X107280118Y-104794523D01*
X107150000Y-104989258D01*
X107019882Y-104794523D01*
X106815477Y-104590118D01*
X106575122Y-104429518D01*
X106308054Y-104318895D01*
X106024536Y-104262500D01*
X105735464Y-104262500D01*
X105451946Y-104318895D01*
X105184878Y-104429518D01*
X104944523Y-104590118D01*
X104740118Y-104794523D01*
X104610000Y-104989258D01*
X104479882Y-104794523D01*
X104275477Y-104590118D01*
X104035122Y-104429518D01*
X103768054Y-104318895D01*
X103484536Y-104262500D01*
X103195464Y-104262500D01*
X102942499Y-104312818D01*
X102942499Y-96359824D01*
X102946175Y-96322499D01*
X102942499Y-96285174D01*
X102942499Y-96285166D01*
X102931502Y-96173513D01*
X102888045Y-96030252D01*
X102817473Y-95898223D01*
X102722500Y-95782498D01*
X102693503Y-95758701D01*
X102578542Y-95643740D01*
X120395000Y-95643740D01*
X120395000Y-95936260D01*
X120452068Y-96223158D01*
X120564010Y-96493411D01*
X120726525Y-96736632D01*
X120933368Y-96943475D01*
X121107760Y-97060000D01*
X120933368Y-97176525D01*
X120726525Y-97383368D01*
X120564010Y-97626589D01*
X120452068Y-97896842D01*
X120395000Y-98183740D01*
X120395000Y-98476260D01*
X120452068Y-98763158D01*
X120564010Y-99033411D01*
X120726525Y-99276632D01*
X120933368Y-99483475D01*
X121176589Y-99645990D01*
X121446842Y-99757932D01*
X121733740Y-99815000D01*
X122026260Y-99815000D01*
X122313158Y-99757932D01*
X122583411Y-99645990D01*
X122826632Y-99483475D01*
X123033475Y-99276632D01*
X123195990Y-99033411D01*
X123307932Y-98763158D01*
X123365000Y-98476260D01*
X123365000Y-98183740D01*
X123307932Y-97896842D01*
X123195990Y-97626589D01*
X123033475Y-97383368D01*
X122826632Y-97176525D01*
X122652240Y-97060000D01*
X122826632Y-96943475D01*
X123033475Y-96736632D01*
X123195990Y-96493411D01*
X123307932Y-96223158D01*
X123365000Y-95936260D01*
X123365000Y-95643740D01*
X123307932Y-95356842D01*
X123195990Y-95086589D01*
X123033475Y-94843368D01*
X122826632Y-94636525D01*
X122644466Y-94514805D01*
X122761355Y-94445178D01*
X122977588Y-94250269D01*
X123151641Y-94016920D01*
X123276825Y-93754099D01*
X123321476Y-93606890D01*
X123200155Y-93377000D01*
X122007000Y-93377000D01*
X122007000Y-93397000D01*
X121753000Y-93397000D01*
X121753000Y-93377000D01*
X120559845Y-93377000D01*
X120438524Y-93606890D01*
X120483175Y-93754099D01*
X120608359Y-94016920D01*
X120782412Y-94250269D01*
X120998645Y-94445178D01*
X121115534Y-94514805D01*
X120933368Y-94636525D01*
X120726525Y-94843368D01*
X120564010Y-95086589D01*
X120452068Y-95356842D01*
X120395000Y-95643740D01*
X102578542Y-95643740D01*
X97231209Y-90296408D01*
X97275000Y-90076260D01*
X97275000Y-89783740D01*
X97217932Y-89496842D01*
X97105990Y-89226589D01*
X96943475Y-88983368D01*
X96736632Y-88776525D01*
X96562240Y-88660000D01*
X96736632Y-88543475D01*
X96943475Y-88336632D01*
X97105990Y-88093411D01*
X97217932Y-87823158D01*
X97275000Y-87536260D01*
X97275000Y-87243740D01*
X97217932Y-86956842D01*
X97105990Y-86686589D01*
X96943475Y-86443368D01*
X96736632Y-86236525D01*
X96554466Y-86114805D01*
X96671355Y-86045178D01*
X96887588Y-85850269D01*
X97061641Y-85616920D01*
X97186825Y-85354099D01*
X97231476Y-85206890D01*
X97110155Y-84977000D01*
X95917000Y-84977000D01*
X95917000Y-84997000D01*
X95663000Y-84997000D01*
X95663000Y-84977000D01*
X95643000Y-84977000D01*
X95643000Y-84723000D01*
X95663000Y-84723000D01*
X95663000Y-84703000D01*
X95917000Y-84703000D01*
X95917000Y-84723000D01*
X97110155Y-84723000D01*
X97231476Y-84493110D01*
X97186825Y-84345901D01*
X97061641Y-84083080D01*
X96887588Y-83849731D01*
X96671355Y-83654822D01*
X96554466Y-83585195D01*
X96736632Y-83463475D01*
X96943475Y-83256632D01*
X97105990Y-83013411D01*
X97217932Y-82743158D01*
X97275000Y-82456260D01*
X97275000Y-82163740D01*
X97217932Y-81876842D01*
X97105990Y-81606589D01*
X96943475Y-81363368D01*
X96736632Y-81156525D01*
X96562240Y-81040000D01*
X96736632Y-80923475D01*
X96943475Y-80716632D01*
X97105990Y-80473411D01*
X97217932Y-80203158D01*
X97275000Y-79916260D01*
X97275000Y-79623740D01*
X97217932Y-79336842D01*
X97105990Y-79066589D01*
X96943475Y-78823368D01*
X96736632Y-78616525D01*
X96554466Y-78494805D01*
X96671355Y-78425178D01*
X96887588Y-78230269D01*
X96901486Y-78211635D01*
X111751371Y-78211635D01*
X111751371Y-78668365D01*
X111840474Y-79116319D01*
X112015258Y-79538283D01*
X112269003Y-79918040D01*
X112591960Y-80240997D01*
X112971717Y-80494742D01*
X113393681Y-80669526D01*
X113841635Y-80758629D01*
X114298365Y-80758629D01*
X114746319Y-80669526D01*
X115168283Y-80494742D01*
X115548040Y-80240997D01*
X115870997Y-79918040D01*
X116124742Y-79538283D01*
X116299526Y-79116319D01*
X116388629Y-78668365D01*
X116388629Y-78211635D01*
X116299526Y-77763681D01*
X116124742Y-77341717D01*
X115870997Y-76961960D01*
X115548040Y-76639003D01*
X115168283Y-76385258D01*
X114746319Y-76210474D01*
X114298365Y-76121371D01*
X113841635Y-76121371D01*
X113393681Y-76210474D01*
X112971717Y-76385258D01*
X112591960Y-76639003D01*
X112269003Y-76961960D01*
X112015258Y-77341717D01*
X111840474Y-77763681D01*
X111751371Y-78211635D01*
X96901486Y-78211635D01*
X97061641Y-77996920D01*
X97186825Y-77734099D01*
X97231476Y-77586890D01*
X97110155Y-77357000D01*
X95917000Y-77357000D01*
X95917000Y-77377000D01*
X95663000Y-77377000D01*
X95663000Y-77357000D01*
X95643000Y-77357000D01*
X95643000Y-77103000D01*
X95663000Y-77103000D01*
X95663000Y-77083000D01*
X95917000Y-77083000D01*
X95917000Y-77103000D01*
X97110155Y-77103000D01*
X97231476Y-76873110D01*
X97186825Y-76725901D01*
X97061641Y-76463080D01*
X96887588Y-76229731D01*
X96671355Y-76034822D01*
X96554466Y-75965195D01*
X96736632Y-75843475D01*
X96943475Y-75636632D01*
X97105990Y-75393411D01*
X97217932Y-75123158D01*
X97275000Y-74836260D01*
X97275000Y-74543740D01*
X97217932Y-74256842D01*
X97105990Y-73986589D01*
X96943475Y-73743368D01*
X96736632Y-73536525D01*
X96562240Y-73420000D01*
X96736632Y-73303475D01*
X96943475Y-73096632D01*
X97105990Y-72853411D01*
X97217932Y-72583158D01*
X97275000Y-72296260D01*
X97275000Y-72003740D01*
X97217932Y-71716842D01*
X97105990Y-71446589D01*
X96943475Y-71203368D01*
X96736632Y-70996525D01*
X96562240Y-70880000D01*
X96736632Y-70763475D01*
X96943475Y-70556632D01*
X97105990Y-70313411D01*
X97217932Y-70043158D01*
X97275000Y-69756260D01*
X97275000Y-69463740D01*
X97217932Y-69176842D01*
X97105990Y-68906589D01*
X96943475Y-68663368D01*
X96736632Y-68456525D01*
X96562240Y-68340000D01*
X96736632Y-68223475D01*
X96943475Y-68016632D01*
X97105990Y-67773411D01*
X97217932Y-67503158D01*
X97275000Y-67216260D01*
X97275000Y-66923740D01*
X97217932Y-66636842D01*
X97105990Y-66366589D01*
X96943475Y-66123368D01*
X96736632Y-65916525D01*
X96554466Y-65794805D01*
X96671355Y-65725178D01*
X96887588Y-65530269D01*
X97061641Y-65296920D01*
X97186825Y-65034099D01*
X97231476Y-64886890D01*
X97110155Y-64657000D01*
X95917000Y-64657000D01*
X95917000Y-64677000D01*
X95663000Y-64677000D01*
X95663000Y-64657000D01*
X95643000Y-64657000D01*
X95643000Y-64403000D01*
X95663000Y-64403000D01*
X95663000Y-64383000D01*
X95917000Y-64383000D01*
X95917000Y-64403000D01*
X97110155Y-64403000D01*
X97231476Y-64173110D01*
X97186825Y-64025901D01*
X97061641Y-63763080D01*
X96887588Y-63529731D01*
X96671355Y-63334822D01*
X96554466Y-63265195D01*
X96736632Y-63143475D01*
X96943475Y-62936632D01*
X97105990Y-62693411D01*
X97217932Y-62423158D01*
X97275000Y-62136260D01*
X97275000Y-61843740D01*
X97217932Y-61556842D01*
X97105990Y-61286589D01*
X96943475Y-61043368D01*
X96736632Y-60836525D01*
X96554466Y-60714805D01*
X96671355Y-60645178D01*
X96887588Y-60450269D01*
X97061641Y-60216920D01*
X97186825Y-59954099D01*
X97231476Y-59806890D01*
X97110155Y-59577000D01*
X95917000Y-59577000D01*
X95917000Y-59597000D01*
X95663000Y-59597000D01*
X95663000Y-59577000D01*
X95643000Y-59577000D01*
X95643000Y-59323000D01*
X95663000Y-59323000D01*
X95663000Y-59303000D01*
X95917000Y-59303000D01*
X95917000Y-59323000D01*
X97110155Y-59323000D01*
X97231476Y-59093110D01*
X97186825Y-58945901D01*
X97061641Y-58683080D01*
X96887588Y-58449731D01*
X96671355Y-58254822D01*
X96554466Y-58185195D01*
X96736632Y-58063475D01*
X96943475Y-57856632D01*
X97105990Y-57613411D01*
X97217932Y-57343158D01*
X97275000Y-57056260D01*
X97275000Y-56763740D01*
X97217932Y-56476842D01*
X97105990Y-56206589D01*
X96943475Y-55963368D01*
X96736632Y-55756525D01*
X96562240Y-55640000D01*
X96736632Y-55523475D01*
X96943475Y-55316632D01*
X97105990Y-55073411D01*
X97217932Y-54803158D01*
X97275000Y-54516260D01*
X97275000Y-54223740D01*
X97217932Y-53936842D01*
X97105990Y-53666589D01*
X96943475Y-53423368D01*
X96736632Y-53216525D01*
X96562240Y-53100000D01*
X96736632Y-52983475D01*
X96943475Y-52776632D01*
X97105990Y-52533411D01*
X97217932Y-52263158D01*
X97275000Y-51976260D01*
X97275000Y-51683740D01*
X97217932Y-51396842D01*
X97105990Y-51126589D01*
X96943475Y-50883368D01*
X96736632Y-50676525D01*
X96493411Y-50514010D01*
X96223158Y-50402068D01*
X95936260Y-50345000D01*
X95643740Y-50345000D01*
X95423592Y-50388791D01*
X95178803Y-50144002D01*
X95155000Y-50114998D01*
X95039275Y-50020025D01*
X94907246Y-49949453D01*
X94763985Y-49905996D01*
X94652332Y-49894999D01*
X94652321Y-49894999D01*
X94614999Y-49891323D01*
X94577677Y-49894999D01*
X79222323Y-49894999D01*
X79185000Y-49891323D01*
X79147677Y-49894999D01*
X79147668Y-49894999D01*
X79036015Y-49905996D01*
X78892754Y-49949453D01*
X78760725Y-50020025D01*
X78760723Y-50020026D01*
X78760724Y-50020026D01*
X78673997Y-50091200D01*
X78673993Y-50091204D01*
X78645000Y-50114998D01*
X78621206Y-50143991D01*
X78366407Y-50398790D01*
X78146260Y-50355000D01*
X77853740Y-50355000D01*
X77566842Y-50412068D01*
X77296589Y-50524010D01*
X77053368Y-50686525D01*
X76846525Y-50893368D01*
X76684010Y-51136589D01*
X76572068Y-51406842D01*
X76515000Y-51693740D01*
X76515000Y-51986260D01*
X76572068Y-52273158D01*
X76684010Y-52543411D01*
X76846525Y-52786632D01*
X77053368Y-52993475D01*
X77227760Y-53110000D01*
X77053368Y-53226525D01*
X76846525Y-53433368D01*
X76684010Y-53676589D01*
X76572068Y-53946842D01*
X76515000Y-54233740D01*
X76515000Y-54526260D01*
X76572068Y-54813158D01*
X76684010Y-55083411D01*
X76846525Y-55326632D01*
X77053368Y-55533475D01*
X77227760Y-55650000D01*
X77053368Y-55766525D01*
X76846525Y-55973368D01*
X76684010Y-56216589D01*
X76572068Y-56486842D01*
X76515000Y-56773740D01*
X76515000Y-57066260D01*
X76572068Y-57353158D01*
X76684010Y-57623411D01*
X76846525Y-57866632D01*
X77053368Y-58073475D01*
X77235534Y-58195195D01*
X77118645Y-58264822D01*
X76902412Y-58459731D01*
X76728359Y-58693080D01*
X76603175Y-58955901D01*
X76558524Y-59103110D01*
X76679845Y-59333000D01*
X77873000Y-59333000D01*
X77873000Y-59313000D01*
X78127000Y-59313000D01*
X78127000Y-59333000D01*
X78147000Y-59333000D01*
X78147000Y-59587000D01*
X78127000Y-59587000D01*
X78127000Y-59607000D01*
X77873000Y-59607000D01*
X77873000Y-59587000D01*
X76679845Y-59587000D01*
X76558524Y-59816890D01*
X76603175Y-59964099D01*
X76728359Y-60226920D01*
X76902412Y-60460269D01*
X77118645Y-60655178D01*
X77235534Y-60724805D01*
X77053368Y-60846525D01*
X76846525Y-61053368D01*
X76684010Y-61296589D01*
X76572068Y-61566842D01*
X76515000Y-61853740D01*
X76515000Y-62146260D01*
X76572068Y-62433158D01*
X76684010Y-62703411D01*
X76846525Y-62946632D01*
X77053368Y-63153475D01*
X77235534Y-63275195D01*
X77118645Y-63344822D01*
X76902412Y-63539731D01*
X76728359Y-63773080D01*
X76603175Y-64035901D01*
X76558524Y-64183110D01*
X76679845Y-64413000D01*
X77873000Y-64413000D01*
X77873000Y-64393000D01*
X78127000Y-64393000D01*
X78127000Y-64413000D01*
X78147000Y-64413000D01*
X78147000Y-64667000D01*
X78127000Y-64667000D01*
X78127000Y-64687000D01*
X77873000Y-64687000D01*
X77873000Y-64667000D01*
X76679845Y-64667000D01*
X76558524Y-64896890D01*
X76603175Y-65044099D01*
X76728359Y-65306920D01*
X76902412Y-65540269D01*
X77118645Y-65735178D01*
X77235534Y-65804805D01*
X77053368Y-65926525D01*
X76846525Y-66133368D01*
X76684010Y-66376589D01*
X76572068Y-66646842D01*
X76515000Y-66933740D01*
X76515000Y-67226260D01*
X76572068Y-67513158D01*
X76684010Y-67783411D01*
X76846525Y-68026632D01*
X77053368Y-68233475D01*
X77227760Y-68350000D01*
X77053368Y-68466525D01*
X76846525Y-68673368D01*
X76684010Y-68916589D01*
X76572068Y-69186842D01*
X76515000Y-69473740D01*
X76515000Y-69766260D01*
X76572068Y-70053158D01*
X76684010Y-70323411D01*
X76846525Y-70566632D01*
X77053368Y-70773475D01*
X77227760Y-70890000D01*
X77053368Y-71006525D01*
X76846525Y-71213368D01*
X76684010Y-71456589D01*
X76572068Y-71726842D01*
X76515000Y-72013740D01*
X76515000Y-72306260D01*
X76572068Y-72593158D01*
X76684010Y-72863411D01*
X76846525Y-73106632D01*
X77053368Y-73313475D01*
X77227760Y-73430000D01*
X77053368Y-73546525D01*
X76846525Y-73753368D01*
X76684010Y-73996589D01*
X76572068Y-74266842D01*
X76515000Y-74553740D01*
X76515000Y-74846260D01*
X76572068Y-75133158D01*
X76684010Y-75403411D01*
X76846525Y-75646632D01*
X77053368Y-75853475D01*
X77235534Y-75975195D01*
X77118645Y-76044822D01*
X76902412Y-76239731D01*
X76728359Y-76473080D01*
X76603175Y-76735901D01*
X76558524Y-76883110D01*
X76679845Y-77113000D01*
X77873000Y-77113000D01*
X77873000Y-77093000D01*
X78127000Y-77093000D01*
X78127000Y-77113000D01*
X78147000Y-77113000D01*
X78147000Y-77367000D01*
X78127000Y-77367000D01*
X78127000Y-77387000D01*
X77873000Y-77387000D01*
X77873000Y-77367000D01*
X76679845Y-77367000D01*
X76558524Y-77596890D01*
X76603175Y-77744099D01*
X76728359Y-78006920D01*
X76902412Y-78240269D01*
X77118645Y-78435178D01*
X77235534Y-78504805D01*
X77053368Y-78626525D01*
X76846525Y-78833368D01*
X76684010Y-79076589D01*
X76572068Y-79346842D01*
X76515000Y-79633740D01*
X76515000Y-79926260D01*
X76572068Y-80213158D01*
X76684010Y-80483411D01*
X76846525Y-80726632D01*
X77053368Y-80933475D01*
X77227760Y-81050000D01*
X77053368Y-81166525D01*
X76846525Y-81373368D01*
X76684010Y-81616589D01*
X76572068Y-81886842D01*
X76515000Y-82173740D01*
X76515000Y-82466260D01*
X76572068Y-82753158D01*
X76684010Y-83023411D01*
X76846525Y-83266632D01*
X77053368Y-83473475D01*
X77235534Y-83595195D01*
X77118645Y-83664822D01*
X76902412Y-83859731D01*
X76728359Y-84093080D01*
X76603175Y-84355901D01*
X76558524Y-84503110D01*
X76679845Y-84733000D01*
X77873000Y-84733000D01*
X77873000Y-84713000D01*
X78127000Y-84713000D01*
X78127000Y-84733000D01*
X78147000Y-84733000D01*
X78147000Y-84987000D01*
X78127000Y-84987000D01*
X78127000Y-85007000D01*
X77873000Y-85007000D01*
X77873000Y-84987000D01*
X76679845Y-84987000D01*
X76558524Y-85216890D01*
X76603175Y-85364099D01*
X76728359Y-85626920D01*
X76902412Y-85860269D01*
X77118645Y-86055178D01*
X77235534Y-86124805D01*
X77053368Y-86246525D01*
X76846525Y-86453368D01*
X76684010Y-86696589D01*
X76572068Y-86966842D01*
X76515000Y-87253740D01*
X76515000Y-87546260D01*
X76572068Y-87833158D01*
X76684010Y-88103411D01*
X76846525Y-88346632D01*
X77053368Y-88553475D01*
X77227760Y-88670000D01*
X77053368Y-88786525D01*
X76846525Y-88993368D01*
X76684010Y-89236589D01*
X76572068Y-89506842D01*
X76515000Y-89793740D01*
X76515000Y-90086260D01*
X76572068Y-90373158D01*
X76684010Y-90643411D01*
X76846525Y-90886632D01*
X77053368Y-91093475D01*
X77227760Y-91210000D01*
X77053368Y-91326525D01*
X76846525Y-91533368D01*
X76684010Y-91776589D01*
X76572068Y-92046842D01*
X76515000Y-92333740D01*
X76515000Y-92626260D01*
X76572068Y-92913158D01*
X76684010Y-93183411D01*
X76846525Y-93426632D01*
X77053368Y-93633475D01*
X77235534Y-93755195D01*
X77118645Y-93824822D01*
X76902412Y-94019731D01*
X76728359Y-94253080D01*
X76603175Y-94515901D01*
X76558524Y-94663110D01*
X76679845Y-94893000D01*
X77873000Y-94893000D01*
X77873000Y-94873000D01*
X78127000Y-94873000D01*
X78127000Y-94893000D01*
X78147000Y-94893000D01*
X78147000Y-95147000D01*
X78127000Y-95147000D01*
X78127000Y-95167000D01*
X77873000Y-95167000D01*
X77873000Y-95147000D01*
X76679845Y-95147000D01*
X76558524Y-95376890D01*
X76603175Y-95524099D01*
X76728359Y-95786920D01*
X76902412Y-96020269D01*
X77118645Y-96215178D01*
X77235534Y-96284805D01*
X77053368Y-96406525D01*
X76846525Y-96613368D01*
X76684010Y-96856589D01*
X76572068Y-97126842D01*
X76515000Y-97413740D01*
X76515000Y-97706260D01*
X76572068Y-97993158D01*
X76684010Y-98263411D01*
X76846525Y-98506632D01*
X77053368Y-98713475D01*
X77227760Y-98830000D01*
X77053368Y-98946525D01*
X76846525Y-99153368D01*
X76684010Y-99396589D01*
X76572068Y-99666842D01*
X76515000Y-99953740D01*
X76515000Y-100246260D01*
X76558790Y-100466408D01*
X74888998Y-102136201D01*
X74860000Y-102159999D01*
X74836202Y-102188997D01*
X74836201Y-102188998D01*
X74765026Y-102275724D01*
X74694454Y-102407754D01*
X74650998Y-102551015D01*
X74636324Y-102700000D01*
X74640001Y-102737332D01*
X74640000Y-104472868D01*
X74464523Y-104590118D01*
X74260118Y-104794523D01*
X74099518Y-105034878D01*
X73988895Y-105301946D01*
X73932500Y-105585464D01*
X73932500Y-105874536D01*
X73988895Y-106158054D01*
X74099518Y-106425122D01*
X74260118Y-106665477D01*
X74464523Y-106869882D01*
X74704878Y-107030482D01*
X74971946Y-107141105D01*
X75255464Y-107197500D01*
X75544536Y-107197500D01*
X75828054Y-107141105D01*
X76095122Y-107030482D01*
X76335477Y-106869882D01*
X76539882Y-106665477D01*
X76670000Y-106470742D01*
X76800118Y-106665477D01*
X77004523Y-106869882D01*
X77199258Y-107000000D01*
X77004523Y-107130118D01*
X76800118Y-107334523D01*
X76639518Y-107574878D01*
X76528895Y-107841946D01*
X76472500Y-108125464D01*
X76472500Y-108414536D01*
X76528895Y-108698054D01*
X76639518Y-108965122D01*
X76800118Y-109205477D01*
X77004523Y-109409882D01*
X77244878Y-109570482D01*
X77511946Y-109681105D01*
X77795464Y-109737500D01*
X78084536Y-109737500D01*
X78368054Y-109681105D01*
X78635122Y-109570482D01*
X78875477Y-109409882D01*
X79079882Y-109205477D01*
X79240482Y-108965122D01*
X79351105Y-108698054D01*
X79407500Y-108414536D01*
X79407500Y-108125464D01*
X79351105Y-107841946D01*
X79240482Y-107574878D01*
X79079882Y-107334523D01*
X78875477Y-107130118D01*
X78680742Y-107000000D01*
X78875477Y-106869882D01*
X79079882Y-106665477D01*
X79210000Y-106470742D01*
X79340118Y-106665477D01*
X79544523Y-106869882D01*
X79784878Y-107030482D01*
X80051946Y-107141105D01*
X80335464Y-107197500D01*
X80624536Y-107197500D01*
X80908054Y-107141105D01*
X81175122Y-107030482D01*
X81415477Y-106869882D01*
X81619882Y-106665477D01*
X81750000Y-106470742D01*
X81880118Y-106665477D01*
X82084523Y-106869882D01*
X82279258Y-107000000D01*
X82084523Y-107130118D01*
X81880118Y-107334523D01*
X81719518Y-107574878D01*
X81608895Y-107841946D01*
X81552500Y-108125464D01*
X81552500Y-108414536D01*
X81608895Y-108698054D01*
X81719518Y-108965122D01*
X81880118Y-109205477D01*
X82084523Y-109409882D01*
X82324878Y-109570482D01*
X82591946Y-109681105D01*
X82875464Y-109737500D01*
X83164536Y-109737500D01*
X83448054Y-109681105D01*
X83715122Y-109570482D01*
X83955477Y-109409882D01*
X84159882Y-109205477D01*
X84290000Y-109010742D01*
X84420118Y-109205477D01*
X84624523Y-109409882D01*
X84864878Y-109570482D01*
X85131946Y-109681105D01*
X85415464Y-109737500D01*
X85704536Y-109737500D01*
X85988054Y-109681105D01*
X86255122Y-109570482D01*
X86495477Y-109409882D01*
X86699882Y-109205477D01*
X86830000Y-109010742D01*
X86960118Y-109205477D01*
X87164523Y-109409882D01*
X87404878Y-109570482D01*
X87671946Y-109681105D01*
X87955464Y-109737500D01*
X88097699Y-109737500D01*
X86431502Y-111403697D01*
X86402498Y-111427500D01*
X86371935Y-111464742D01*
X86307525Y-111543225D01*
X86255535Y-111640491D01*
X86236953Y-111675255D01*
X86193496Y-111818516D01*
X86182499Y-111930169D01*
X86182499Y-111930179D01*
X86178823Y-111967501D01*
X86182499Y-112004823D01*
X86182500Y-119639437D01*
X85988054Y-119558895D01*
X85704536Y-119502500D01*
X85415464Y-119502500D01*
X85131946Y-119558895D01*
X84864878Y-119669518D01*
X84624523Y-119830118D01*
X84420118Y-120034523D01*
X84290000Y-120229258D01*
X84159882Y-120034523D01*
X83955477Y-119830118D01*
X83715122Y-119669518D01*
X83448054Y-119558895D01*
X83164536Y-119502500D01*
X82875464Y-119502500D01*
X82591946Y-119558895D01*
X82324878Y-119669518D01*
X82084523Y-119830118D01*
X81880118Y-120034523D01*
X81750000Y-120229258D01*
X81619882Y-120034523D01*
X81415477Y-119830118D01*
X81175122Y-119669518D01*
X80908054Y-119558895D01*
X80624536Y-119502500D01*
X80335464Y-119502500D01*
X80051946Y-119558895D01*
X79784878Y-119669518D01*
X79544523Y-119830118D01*
X79340118Y-120034523D01*
X79210000Y-120229258D01*
X79079882Y-120034523D01*
X78875477Y-119830118D01*
X78635122Y-119669518D01*
X78368054Y-119558895D01*
X78084536Y-119502500D01*
X77795464Y-119502500D01*
X77511946Y-119558895D01*
X77244878Y-119669518D01*
X77004523Y-119830118D01*
X76800118Y-120034523D01*
X76672170Y-120226011D01*
X76663193Y-120209217D01*
X76415906Y-120133699D01*
X75579605Y-120970000D01*
X76415906Y-121806301D01*
X76663193Y-121730783D01*
X76671591Y-121713123D01*
X76800118Y-121905477D01*
X77004523Y-122109882D01*
X77244878Y-122270482D01*
X77511946Y-122381105D01*
X77795464Y-122437500D01*
X78084536Y-122437500D01*
X78368054Y-122381105D01*
X78635122Y-122270482D01*
X78875477Y-122109882D01*
X79079882Y-121905477D01*
X79210000Y-121710742D01*
X79340118Y-121905477D01*
X79544523Y-122109882D01*
X79784878Y-122270482D01*
X80051946Y-122381105D01*
X80335464Y-122437500D01*
X80624536Y-122437500D01*
X80908054Y-122381105D01*
X81175122Y-122270482D01*
X81415477Y-122109882D01*
X81619882Y-121905477D01*
X81750000Y-121710742D01*
X81880118Y-121905477D01*
X82084523Y-122109882D01*
X82324878Y-122270482D01*
X82591946Y-122381105D01*
X82875464Y-122437500D01*
X83164536Y-122437500D01*
X83448054Y-122381105D01*
X83715122Y-122270482D01*
X83955477Y-122109882D01*
X84159882Y-121905477D01*
X84290000Y-121710742D01*
X84420118Y-121905477D01*
X84624523Y-122109882D01*
X84864878Y-122270482D01*
X85131946Y-122381105D01*
X85415464Y-122437500D01*
X85704536Y-122437500D01*
X85988054Y-122381105D01*
X86182500Y-122300563D01*
X86182500Y-124172698D01*
X85256408Y-125098791D01*
X85036260Y-125055000D01*
X84743740Y-125055000D01*
X84456842Y-125112068D01*
X84186589Y-125224010D01*
X83943368Y-125386525D01*
X83736525Y-125593368D01*
X83614805Y-125775534D01*
X83545178Y-125658645D01*
X83350269Y-125442412D01*
X83116920Y-125268359D01*
X82854099Y-125143175D01*
X82706890Y-125098524D01*
X82477000Y-125219845D01*
X82477000Y-126413000D01*
X82497000Y-126413000D01*
X82497000Y-126667000D01*
X82477000Y-126667000D01*
X82477000Y-127860155D01*
X82706890Y-127981476D01*
X82854099Y-127936825D01*
X83116920Y-127811641D01*
X83350269Y-127637588D01*
X83545178Y-127421355D01*
X83614805Y-127304466D01*
X83736525Y-127486632D01*
X83943368Y-127693475D01*
X84186589Y-127855990D01*
X84456842Y-127967932D01*
X84743740Y-128025000D01*
X85036260Y-128025000D01*
X85323158Y-127967932D01*
X85593411Y-127855990D01*
X85836632Y-127693475D01*
X86043475Y-127486632D01*
X86160000Y-127312240D01*
X86276525Y-127486632D01*
X86483368Y-127693475D01*
X86726589Y-127855990D01*
X86996842Y-127967932D01*
X87283740Y-128025000D01*
X87576260Y-128025000D01*
X87863158Y-127967932D01*
X88133411Y-127855990D01*
X88376632Y-127693475D01*
X88583475Y-127486632D01*
X88745990Y-127243411D01*
X88835675Y-127026891D01*
X94118519Y-127026891D01*
X94215843Y-127301252D01*
X94364822Y-127551355D01*
X94559731Y-127767588D01*
X94793080Y-127941641D01*
X95055901Y-128066825D01*
X95203110Y-128111476D01*
X95433000Y-127990155D01*
X95433000Y-126797000D01*
X94239186Y-126797000D01*
X94118519Y-127026891D01*
X88835675Y-127026891D01*
X88857932Y-126973158D01*
X88915000Y-126686260D01*
X88915000Y-126393740D01*
X88887402Y-126254999D01*
X94139132Y-126254999D01*
X94118519Y-126313109D01*
X94239186Y-126543000D01*
X95433000Y-126543000D01*
X95433000Y-126523000D01*
X95687000Y-126523000D01*
X95687000Y-126543000D01*
X95707000Y-126543000D01*
X95707000Y-126797000D01*
X95687000Y-126797000D01*
X95687000Y-127990155D01*
X95916890Y-128111476D01*
X96064099Y-128066825D01*
X96326920Y-127941641D01*
X96560269Y-127767588D01*
X96755178Y-127551355D01*
X96824805Y-127434466D01*
X96946525Y-127616632D01*
X97153368Y-127823475D01*
X97396589Y-127985990D01*
X97666842Y-128097932D01*
X97953740Y-128155000D01*
X98246260Y-128155000D01*
X98533158Y-128097932D01*
X98803411Y-127985990D01*
X99046632Y-127823475D01*
X99253475Y-127616632D01*
X99370000Y-127442240D01*
X99486525Y-127616632D01*
X99693368Y-127823475D01*
X99936589Y-127985990D01*
X100206842Y-128097932D01*
X100493740Y-128155000D01*
X100786260Y-128155000D01*
X101073158Y-128097932D01*
X101343411Y-127985990D01*
X101586632Y-127823475D01*
X101718487Y-127691620D01*
X101740498Y-127764180D01*
X101799463Y-127874494D01*
X101878815Y-127971185D01*
X101975506Y-128050537D01*
X102085820Y-128109502D01*
X102205518Y-128145812D01*
X102330000Y-128158072D01*
X104030000Y-128158072D01*
X104154482Y-128145812D01*
X104274180Y-128109502D01*
X104384494Y-128050537D01*
X104481185Y-127971185D01*
X104560537Y-127874494D01*
X104619502Y-127764180D01*
X104655812Y-127644482D01*
X104668072Y-127520000D01*
X104668072Y-126254999D01*
X111441826Y-126254999D01*
X111412068Y-126326842D01*
X111355000Y-126613740D01*
X111355000Y-126906260D01*
X111412068Y-127193158D01*
X111524010Y-127463411D01*
X111686525Y-127706632D01*
X111893368Y-127913475D01*
X112136589Y-128075990D01*
X112406842Y-128187932D01*
X112693740Y-128245000D01*
X112986260Y-128245000D01*
X113273158Y-128187932D01*
X113543411Y-128075990D01*
X113786632Y-127913475D01*
X113993475Y-127706632D01*
X114110000Y-127532240D01*
X114226525Y-127706632D01*
X114433368Y-127913475D01*
X114676589Y-128075990D01*
X114946842Y-128187932D01*
X115233740Y-128245000D01*
X115526260Y-128245000D01*
X115746408Y-128201210D01*
X116081202Y-128536004D01*
X116105000Y-128565002D01*
X116133998Y-128588800D01*
X116220725Y-128659975D01*
X116352754Y-128730547D01*
X116496015Y-128774004D01*
X116645001Y-128788678D01*
X116682334Y-128785001D01*
X135207677Y-128785001D01*
X135244999Y-128788677D01*
X135282321Y-128785001D01*
X135282332Y-128785001D01*
X135393985Y-128774004D01*
X135537246Y-128730547D01*
X135669275Y-128659975D01*
X135785000Y-128565002D01*
X135808803Y-128535998D01*
X136053592Y-128291209D01*
X136273740Y-128335000D01*
X136566260Y-128335000D01*
X136853158Y-128277932D01*
X137123411Y-128165990D01*
X137366632Y-128003475D01*
X137573475Y-127796632D01*
X137653742Y-127676503D01*
X137657696Y-128810103D01*
X73769926Y-128819990D01*
X73766593Y-125690000D01*
X78321928Y-125690000D01*
X78321928Y-127390000D01*
X78334188Y-127514482D01*
X78370498Y-127634180D01*
X78429463Y-127744494D01*
X78508815Y-127841185D01*
X78605506Y-127920537D01*
X78715820Y-127979502D01*
X78835518Y-128015812D01*
X78960000Y-128028072D01*
X80660000Y-128028072D01*
X80784482Y-128015812D01*
X80904180Y-127979502D01*
X81014494Y-127920537D01*
X81111185Y-127841185D01*
X81190537Y-127744494D01*
X81249502Y-127634180D01*
X81273966Y-127553534D01*
X81349731Y-127637588D01*
X81583080Y-127811641D01*
X81845901Y-127936825D01*
X81993110Y-127981476D01*
X82223000Y-127860155D01*
X82223000Y-126667000D01*
X82203000Y-126667000D01*
X82203000Y-126413000D01*
X82223000Y-126413000D01*
X82223000Y-125219845D01*
X81993110Y-125098524D01*
X81845901Y-125143175D01*
X81583080Y-125268359D01*
X81349731Y-125442412D01*
X81273966Y-125526466D01*
X81249502Y-125445820D01*
X81190537Y-125335506D01*
X81111185Y-125238815D01*
X81014494Y-125159463D01*
X80904180Y-125100498D01*
X80784482Y-125064188D01*
X80660000Y-125051928D01*
X78960000Y-125051928D01*
X78835518Y-125064188D01*
X78715820Y-125100498D01*
X78605506Y-125159463D01*
X78508815Y-125238815D01*
X78429463Y-125335506D01*
X78370498Y-125445820D01*
X78334188Y-125565518D01*
X78321928Y-125690000D01*
X73766593Y-125690000D01*
X73762648Y-121985906D01*
X74563699Y-121985906D01*
X74639217Y-122233193D01*
X74900273Y-122357343D01*
X75180532Y-122428177D01*
X75469226Y-122442974D01*
X75755259Y-122401166D01*
X76027639Y-122304359D01*
X76160783Y-122233193D01*
X76236301Y-121985906D01*
X75400000Y-121149605D01*
X74563699Y-121985906D01*
X73762648Y-121985906D01*
X73761639Y-121039226D01*
X73927026Y-121039226D01*
X73968834Y-121325259D01*
X74065641Y-121597639D01*
X74136807Y-121730783D01*
X74384094Y-121806301D01*
X75220395Y-120970000D01*
X74384094Y-120133699D01*
X74136807Y-120209217D01*
X74012657Y-120470273D01*
X73941823Y-120750532D01*
X73927026Y-121039226D01*
X73761639Y-121039226D01*
X73760484Y-119954094D01*
X74563699Y-119954094D01*
X75400000Y-120790395D01*
X76236301Y-119954094D01*
X76160783Y-119706807D01*
X75899727Y-119582657D01*
X75619468Y-119511823D01*
X75330774Y-119497026D01*
X75044741Y-119538834D01*
X74772361Y-119635641D01*
X74639217Y-119706807D01*
X74563699Y-119954094D01*
X73760484Y-119954094D01*
X73680034Y-44421929D01*
X73687485Y-44345941D01*
X73700281Y-44303559D01*
X73721064Y-44264472D01*
X73749045Y-44230164D01*
X73783155Y-44201946D01*
X73822097Y-44180890D01*
X73864389Y-44167799D01*
X73938588Y-44160000D01*
X137077721Y-44160000D01*
X137218156Y-44173770D01*
G37*
%TD.AperFunction*%
D17*
X118047000Y-126633000D02*
X118067000Y-126633000D01*
X118067000Y-126887000D01*
X118047000Y-126887000D01*
X118047000Y-126907000D01*
X117793000Y-126907000D01*
X117793000Y-126887000D01*
X117773000Y-126887000D01*
X117773000Y-126633000D01*
X117793000Y-126633000D01*
X117793000Y-126613000D01*
X118047000Y-126613000D01*
X118047000Y-126633000D01*
%TA.AperFunction,Conductor*%
D18*
G36*
X118047000Y-126633000D02*
G01*
X118067000Y-126633000D01*
X118067000Y-126887000D01*
X118047000Y-126887000D01*
X118047000Y-126907000D01*
X117793000Y-126907000D01*
X117793000Y-126887000D01*
X117773000Y-126887000D01*
X117773000Y-126633000D01*
X117793000Y-126633000D01*
X117793000Y-126613000D01*
X118047000Y-126613000D01*
X118047000Y-126633000D01*
G37*
%TD.AperFunction*%
D17*
X95917000Y-94883000D02*
X95937000Y-94883000D01*
X95937000Y-95137000D01*
X95917000Y-95137000D01*
X95917000Y-95157000D01*
X95663000Y-95157000D01*
X95663000Y-95137000D01*
X95643000Y-95137000D01*
X95643000Y-94883000D01*
X95663000Y-94883000D01*
X95663000Y-94863000D01*
X95917000Y-94863000D01*
X95917000Y-94883000D01*
%TA.AperFunction,Conductor*%
D18*
G36*
X95917000Y-94883000D02*
G01*
X95937000Y-94883000D01*
X95937000Y-95137000D01*
X95917000Y-95137000D01*
X95917000Y-95157000D01*
X95663000Y-95157000D01*
X95663000Y-95137000D01*
X95643000Y-95137000D01*
X95643000Y-94883000D01*
X95663000Y-94883000D01*
X95663000Y-94863000D01*
X95917000Y-94863000D01*
X95917000Y-94883000D01*
G37*
%TD.AperFunction*%
D17*
X92096525Y-88336632D02*
X92303368Y-88543475D01*
X92485534Y-88665195D01*
X92368645Y-88734822D01*
X92152412Y-88929731D01*
X91978359Y-89163080D01*
X91853175Y-89425901D01*
X91808524Y-89573110D01*
X91929845Y-89803000D01*
X93123000Y-89803000D01*
X93123000Y-89783000D01*
X93377000Y-89783000D01*
X93377000Y-89803000D01*
X93397000Y-89803000D01*
X93397000Y-90057000D01*
X93377000Y-90057000D01*
X93377000Y-90077000D01*
X93123000Y-90077000D01*
X93123000Y-90057000D01*
X91929845Y-90057000D01*
X91808524Y-90286890D01*
X91853175Y-90434099D01*
X91978359Y-90696920D01*
X92152412Y-90930269D01*
X92368645Y-91125178D01*
X92485534Y-91194805D01*
X92303368Y-91316525D01*
X92096525Y-91523368D01*
X91934010Y-91766589D01*
X91822068Y-92036842D01*
X91765000Y-92323740D01*
X91765000Y-92616260D01*
X91822068Y-92903158D01*
X91934010Y-93173411D01*
X92096525Y-93416632D01*
X92303368Y-93623475D01*
X92477760Y-93740000D01*
X92303368Y-93856525D01*
X92096525Y-94063368D01*
X91965140Y-94260000D01*
X81818178Y-94260000D01*
X81693475Y-94073368D01*
X81486632Y-93866525D01*
X81312240Y-93750000D01*
X81486632Y-93633475D01*
X81693475Y-93426632D01*
X81855990Y-93183411D01*
X81967932Y-92913158D01*
X82025000Y-92626260D01*
X82025000Y-92333740D01*
X81967932Y-92046842D01*
X81855990Y-91776589D01*
X81693475Y-91533368D01*
X81486632Y-91326525D01*
X81304466Y-91204805D01*
X81421355Y-91135178D01*
X81637588Y-90940269D01*
X81811641Y-90706920D01*
X81936825Y-90444099D01*
X81981476Y-90296890D01*
X81860155Y-90067000D01*
X80667000Y-90067000D01*
X80667000Y-90087000D01*
X80413000Y-90087000D01*
X80413000Y-90067000D01*
X80393000Y-90067000D01*
X80393000Y-89813000D01*
X80413000Y-89813000D01*
X80413000Y-89793000D01*
X80667000Y-89793000D01*
X80667000Y-89813000D01*
X81860155Y-89813000D01*
X81981476Y-89583110D01*
X81936825Y-89435901D01*
X81811641Y-89173080D01*
X81637588Y-88939731D01*
X81421355Y-88744822D01*
X81304466Y-88675195D01*
X81486632Y-88553475D01*
X81693475Y-88346632D01*
X81818178Y-88160000D01*
X91978503Y-88160000D01*
X92096525Y-88336632D01*
%TA.AperFunction,Conductor*%
D18*
G36*
X92096525Y-88336632D02*
G01*
X92303368Y-88543475D01*
X92485534Y-88665195D01*
X92368645Y-88734822D01*
X92152412Y-88929731D01*
X91978359Y-89163080D01*
X91853175Y-89425901D01*
X91808524Y-89573110D01*
X91929845Y-89803000D01*
X93123000Y-89803000D01*
X93123000Y-89783000D01*
X93377000Y-89783000D01*
X93377000Y-89803000D01*
X93397000Y-89803000D01*
X93397000Y-90057000D01*
X93377000Y-90057000D01*
X93377000Y-90077000D01*
X93123000Y-90077000D01*
X93123000Y-90057000D01*
X91929845Y-90057000D01*
X91808524Y-90286890D01*
X91853175Y-90434099D01*
X91978359Y-90696920D01*
X92152412Y-90930269D01*
X92368645Y-91125178D01*
X92485534Y-91194805D01*
X92303368Y-91316525D01*
X92096525Y-91523368D01*
X91934010Y-91766589D01*
X91822068Y-92036842D01*
X91765000Y-92323740D01*
X91765000Y-92616260D01*
X91822068Y-92903158D01*
X91934010Y-93173411D01*
X92096525Y-93416632D01*
X92303368Y-93623475D01*
X92477760Y-93740000D01*
X92303368Y-93856525D01*
X92096525Y-94063368D01*
X91965140Y-94260000D01*
X81818178Y-94260000D01*
X81693475Y-94073368D01*
X81486632Y-93866525D01*
X81312240Y-93750000D01*
X81486632Y-93633475D01*
X81693475Y-93426632D01*
X81855990Y-93183411D01*
X81967932Y-92913158D01*
X82025000Y-92626260D01*
X82025000Y-92333740D01*
X81967932Y-92046842D01*
X81855990Y-91776589D01*
X81693475Y-91533368D01*
X81486632Y-91326525D01*
X81304466Y-91204805D01*
X81421355Y-91135178D01*
X81637588Y-90940269D01*
X81811641Y-90706920D01*
X81936825Y-90444099D01*
X81981476Y-90296890D01*
X81860155Y-90067000D01*
X80667000Y-90067000D01*
X80667000Y-90087000D01*
X80413000Y-90087000D01*
X80413000Y-90067000D01*
X80393000Y-90067000D01*
X80393000Y-89813000D01*
X80413000Y-89813000D01*
X80413000Y-89793000D01*
X80667000Y-89793000D01*
X80667000Y-89813000D01*
X81860155Y-89813000D01*
X81981476Y-89583110D01*
X81936825Y-89435901D01*
X81811641Y-89173080D01*
X81637588Y-88939731D01*
X81421355Y-88744822D01*
X81304466Y-88675195D01*
X81486632Y-88553475D01*
X81693475Y-88346632D01*
X81818178Y-88160000D01*
X91978503Y-88160000D01*
X92096525Y-88336632D01*
G37*
%TD.AperFunction*%
D17*
X92096525Y-65476632D02*
X92303368Y-65683475D01*
X92477760Y-65800000D01*
X92303368Y-65916525D01*
X92096525Y-66123368D01*
X91934010Y-66366589D01*
X91822068Y-66636842D01*
X91765000Y-66923740D01*
X91765000Y-67216260D01*
X91822068Y-67503158D01*
X91934010Y-67773411D01*
X92096525Y-68016632D01*
X92303368Y-68223475D01*
X92485534Y-68345195D01*
X92368645Y-68414822D01*
X92152412Y-68609731D01*
X91978359Y-68843080D01*
X91853175Y-69105901D01*
X91808524Y-69253110D01*
X91929845Y-69483000D01*
X93123000Y-69483000D01*
X93123000Y-69463000D01*
X93377000Y-69463000D01*
X93377000Y-69483000D01*
X93397000Y-69483000D01*
X93397000Y-69737000D01*
X93377000Y-69737000D01*
X93377000Y-69757000D01*
X93123000Y-69757000D01*
X93123000Y-69737000D01*
X91929845Y-69737000D01*
X91808524Y-69966890D01*
X91853175Y-70114099D01*
X91901235Y-70214999D01*
X81893529Y-70214999D01*
X81936825Y-70124099D01*
X81981476Y-69976890D01*
X81860155Y-69747000D01*
X80667000Y-69747000D01*
X80667000Y-69767000D01*
X80413000Y-69767000D01*
X80413000Y-69747000D01*
X80393000Y-69747000D01*
X80393000Y-69493000D01*
X80413000Y-69493000D01*
X80413000Y-69473000D01*
X80667000Y-69473000D01*
X80667000Y-69493000D01*
X81860155Y-69493000D01*
X81981476Y-69263110D01*
X81936825Y-69115901D01*
X81811641Y-68853080D01*
X81637588Y-68619731D01*
X81421355Y-68424822D01*
X81304466Y-68355195D01*
X81486632Y-68233475D01*
X81693475Y-68026632D01*
X81855990Y-67783411D01*
X81967932Y-67513158D01*
X82025000Y-67226260D01*
X82025000Y-66933740D01*
X81967932Y-66646842D01*
X81855990Y-66376589D01*
X81693475Y-66133368D01*
X81486632Y-65926525D01*
X81312240Y-65810000D01*
X81486632Y-65693475D01*
X81693475Y-65486632D01*
X81818178Y-65300000D01*
X91978503Y-65300000D01*
X92096525Y-65476632D01*
%TA.AperFunction,Conductor*%
D18*
G36*
X92096525Y-65476632D02*
G01*
X92303368Y-65683475D01*
X92477760Y-65800000D01*
X92303368Y-65916525D01*
X92096525Y-66123368D01*
X91934010Y-66366589D01*
X91822068Y-66636842D01*
X91765000Y-66923740D01*
X91765000Y-67216260D01*
X91822068Y-67503158D01*
X91934010Y-67773411D01*
X92096525Y-68016632D01*
X92303368Y-68223475D01*
X92485534Y-68345195D01*
X92368645Y-68414822D01*
X92152412Y-68609731D01*
X91978359Y-68843080D01*
X91853175Y-69105901D01*
X91808524Y-69253110D01*
X91929845Y-69483000D01*
X93123000Y-69483000D01*
X93123000Y-69463000D01*
X93377000Y-69463000D01*
X93377000Y-69483000D01*
X93397000Y-69483000D01*
X93397000Y-69737000D01*
X93377000Y-69737000D01*
X93377000Y-69757000D01*
X93123000Y-69757000D01*
X93123000Y-69737000D01*
X91929845Y-69737000D01*
X91808524Y-69966890D01*
X91853175Y-70114099D01*
X91901235Y-70214999D01*
X81893529Y-70214999D01*
X81936825Y-70124099D01*
X81981476Y-69976890D01*
X81860155Y-69747000D01*
X80667000Y-69747000D01*
X80667000Y-69767000D01*
X80413000Y-69767000D01*
X80413000Y-69747000D01*
X80393000Y-69747000D01*
X80393000Y-69493000D01*
X80413000Y-69493000D01*
X80413000Y-69473000D01*
X80667000Y-69473000D01*
X80667000Y-69493000D01*
X81860155Y-69493000D01*
X81981476Y-69263110D01*
X81936825Y-69115901D01*
X81811641Y-68853080D01*
X81637588Y-68619731D01*
X81421355Y-68424822D01*
X81304466Y-68355195D01*
X81486632Y-68233475D01*
X81693475Y-68026632D01*
X81855990Y-67783411D01*
X81967932Y-67513158D01*
X82025000Y-67226260D01*
X82025000Y-66933740D01*
X81967932Y-66646842D01*
X81855990Y-66376589D01*
X81693475Y-66133368D01*
X81486632Y-65926525D01*
X81312240Y-65810000D01*
X81486632Y-65693475D01*
X81693475Y-65486632D01*
X81818178Y-65300000D01*
X91978503Y-65300000D01*
X92096525Y-65476632D01*
G37*
%TD.AperFunction*%
D17*
X91808524Y-51473110D02*
X91929845Y-51703000D01*
X93123000Y-51703000D01*
X93123000Y-51683000D01*
X93377000Y-51683000D01*
X93377000Y-51703000D01*
X93397000Y-51703000D01*
X93397000Y-51957000D01*
X93377000Y-51957000D01*
X93377000Y-51977000D01*
X93123000Y-51977000D01*
X93123000Y-51957000D01*
X91929845Y-51957000D01*
X91808524Y-52186890D01*
X91853175Y-52334099D01*
X91901235Y-52434999D01*
X81893529Y-52434999D01*
X81936825Y-52344099D01*
X81981476Y-52196890D01*
X81860155Y-51967000D01*
X80667000Y-51967000D01*
X80667000Y-51987000D01*
X80413000Y-51987000D01*
X80413000Y-51967000D01*
X80393000Y-51967000D01*
X80393000Y-51713000D01*
X80413000Y-51713000D01*
X80413000Y-51693000D01*
X80667000Y-51693000D01*
X80667000Y-51713000D01*
X81860155Y-51713000D01*
X81981476Y-51483110D01*
X81960817Y-51414999D01*
X91826150Y-51414999D01*
X91808524Y-51473110D01*
%TA.AperFunction,Conductor*%
D18*
G36*
X91808524Y-51473110D02*
G01*
X91929845Y-51703000D01*
X93123000Y-51703000D01*
X93123000Y-51683000D01*
X93377000Y-51683000D01*
X93377000Y-51703000D01*
X93397000Y-51703000D01*
X93397000Y-51957000D01*
X93377000Y-51957000D01*
X93377000Y-51977000D01*
X93123000Y-51977000D01*
X93123000Y-51957000D01*
X91929845Y-51957000D01*
X91808524Y-52186890D01*
X91853175Y-52334099D01*
X91901235Y-52434999D01*
X81893529Y-52434999D01*
X81936825Y-52344099D01*
X81981476Y-52196890D01*
X81860155Y-51967000D01*
X80667000Y-51967000D01*
X80667000Y-51987000D01*
X80413000Y-51987000D01*
X80413000Y-51967000D01*
X80393000Y-51967000D01*
X80393000Y-51713000D01*
X80413000Y-51713000D01*
X80413000Y-51693000D01*
X80667000Y-51693000D01*
X80667000Y-51713000D01*
X81860155Y-51713000D01*
X81981476Y-51483110D01*
X81960817Y-51414999D01*
X91826150Y-51414999D01*
X91808524Y-51473110D01*
G37*
%TD.AperFunction*%
%TD*%
M02*
